<svg width="26" height="26" viewBox="0 0 26 26" fill="none" xmlns="http://www.w3.org/2000/svg">
<path d="M0 4.85924C0.029757 5.63366 0.207622 6.41891 0.54577 7.16758C1.24709 8.72251 2.09787 10.1948 2.97705 11.6542C6.14076 16.9043 10.44 20.9417 15.8409 23.8178C17.1441 24.5123 18.5014 25.0869 19.8432 25.6966C20.3281 25.9168 20.8272 26.091 21.4007 25.948C23.2402 25.4886 24.6259 24.4269 25.5754 22.8083C26.2943 21.5827 26.0955 20.5034 25.0249 19.5738C24.4893 19.1083 23.9334 18.6619 23.3525 18.2553C22.4767 17.6422 21.6475 16.9531 20.6831 16.4775C19.6274 15.9565 18.5988 15.9802 17.6364 16.7194C17.2854 16.989 16.9953 17.3176 16.7275 17.6699C16.1303 18.4545 15.4188 18.653 14.5221 18.2818C13.4157 17.8231 12.3586 17.2729 11.4084 16.5344C9.70551 15.2105 8.382 13.5939 7.74019 11.5065C7.37905 10.3337 7.49402 9.66495 8.59097 8.94609C8.86284 8.7679 9.11578 8.5538 9.3491 8.32683C10.045 7.65066 10.2093 6.8986 9.79748 6.02188C8.85473 4.0164 7.51702 2.29751 5.90541 0.787972C5.42727 0.340126 4.84633 0.206652 4.21467 0.294054C3.15627 0.4404 2.24733 0.92009 1.45403 1.61862C0.495724 2.46079 0.0378725 3.54348 0 4.85924Z" fill="#4A4E69"/>
<path d="M25.7175 11.8249C25.7026 11.079 25.6627 10.335 25.5146 9.60465C24.4636 4.42833 19.7471 -0.00609148 13.5002 6.28131e-06C13.2087 6.28131e-06 12.9382 0.076567 12.7908 0.367904C12.5351 0.875373 12.7779 1.29544 13.3663 1.38691C14.5978 1.57797 15.8307 1.76226 17.0257 2.13625C19.3542 2.86595 21.2661 4.1458 22.5206 6.29831C23.4728 7.93116 23.9354 9.72119 24.2039 11.5729C24.2587 11.9509 24.2553 12.3385 24.3297 12.7111C24.4115 13.119 24.6631 13.2748 25.0642 13.2437C25.4334 13.2145 25.6309 13.0092 25.6674 12.602C25.6904 12.3439 25.7012 12.0844 25.7175 11.8256V11.8249Z" fill="#4A4E69"/>
<path d="M22.6079 10.9529C22.6396 10.6812 22.5517 10.3472 22.5504 10.0085C22.5504 9.95222 22.5396 9.89599 22.5301 9.84043C22.1534 7.59171 20.9692 5.86469 19.1351 4.55435C17.7514 3.56584 16.1607 3.20065 14.5119 3.03737C13.9499 2.98181 13.6598 3.33751 13.7247 3.90122C13.7646 4.24676 13.9932 4.4324 14.47 4.50422C15.4405 4.65056 16.3853 4.89515 17.3017 5.24611C18.542 5.72106 19.5645 6.46702 20.18 7.67505C20.7636 8.82075 21.1078 10.0389 21.1572 11.3317C21.1748 11.7965 21.4189 12.0837 21.8078 12.0797C22.4002 12.0729 22.5977 11.8872 22.6079 11.3262C22.6099 11.2246 22.6079 11.123 22.6079 10.9529Z" fill="#4A4E69"/>
<path d="M19.5064 10.1304C19.5023 10.0518 19.5064 9.97119 19.4928 9.89396C19.1885 8.11544 18.1524 6.93112 16.5117 6.25834C16.1262 6.10047 15.7124 6.02459 15.2903 6.15942C14.9028 6.28273 14.6235 6.6967 14.6709 7.09305C14.704 7.36948 14.9319 7.51244 15.4019 7.55242C16.5848 7.65337 17.6094 8.49892 17.9171 9.64598C18.0043 9.97052 18.0348 10.31 18.12 10.6352C18.2106 10.9814 18.4791 11.1833 18.8321 11.1494C19.1331 11.1203 19.3251 10.9014 19.4347 10.6298C19.4976 10.4739 19.5179 10.3018 19.5064 10.1297V10.1304Z" fill="#4A4E69"/>
</svg>
