<svg width="76" height="66" viewBox="0 0 76 66" fill="none" xmlns="http://www.w3.org/2000/svg">
<path d="M76 24.904C75.7267 26.226 75.6431 27.5776 75.3475 28.8995C74.338 33.4117 72.3599 37.485 69.7275 41.2583C65.6877 47.0461 60.5716 51.7693 54.9423 55.9796C49.9674 59.7012 44.6858 62.9209 39.1309 65.7056C38.3557 66.0944 37.6585 66.1 36.8796 65.7112C30.8934 62.7265 25.2418 59.2124 19.9397 55.1446C19.0808 54.4855 18.8912 53.6171 19.434 52.9099C19.9713 52.2081 20.8655 52.1396 21.7337 52.8025C26.6528 56.5536 31.8749 59.8271 37.3815 62.6543C37.824 62.8821 38.1567 62.8932 38.6066 62.6599C45.6618 59.0235 52.2913 54.7521 58.2422 49.4938C63.1984 45.1132 67.5449 40.2307 70.3912 34.1837C72.3692 29.9827 73.3415 25.589 72.9046 20.927C72.109 12.4156 65.6989 5.11511 57.3386 3.37655C51.886 2.24157 46.8182 3.33767 42.2318 6.46486C40.5159 7.63501 39.2833 9.17916 39.4637 11.4454C39.5566 12.6248 40.1776 13.5746 40.8357 14.5059C41.6741 15.6928 42.5832 16.8333 43.219 18.1516C44.3158 20.4289 44.5222 22.8211 44.1523 25.2873C44.0221 26.1575 44.0184 26.1575 44.8122 25.9316C48.3816 24.9244 52.2708 26.8296 53.5908 30.29C54.115 31.6675 54.5519 33.0821 54.9423 34.504C55.8049 37.6442 53.7599 40.2826 50.4973 40.2678C50.0455 40.2678 49.9172 40.3918 49.8801 40.8362C49.4302 46.213 46.5374 49.7734 41.5421 51.6268C32.3955 55.0187 22.139 51.3213 17.2273 42.8988C15.5467 40.0141 14.6358 36.8758 14.6953 33.5302C14.725 31.9008 14.2119 30.64 13.1838 29.3698C10.6369 26.2241 10.0848 22.6396 11.6222 18.894C13.1337 15.2151 15.9687 13.0655 19.936 12.4693C22.468 12.0897 24.8662 12.5415 27.0823 13.8098C30.1776 15.5817 31.6277 18.2812 31.5143 21.8268C31.492 22.5156 31.4845 23.2062 31.4511 23.8949C31.4325 24.2837 31.5403 24.4504 31.9791 24.4707C33.1224 24.5263 34.1467 24.9503 35.0205 25.6835C35.3217 25.9371 35.4611 25.9038 35.7046 25.602C37.0302 23.9616 38.7684 23.4672 40.8022 24.156C41.2038 24.293 41.306 24.2226 41.3358 23.8172C41.4938 21.6935 40.9342 19.7809 39.7221 18.0349C38.8651 16.8018 37.8779 15.6539 37.2384 14.2782C35.8255 11.2436 36.3423 8.00901 38.72 5.63168C41.6462 2.70445 45.2937 1.1029 49.3056 0.39007C56.0931 -0.817111 62.2354 0.780738 67.5542 5.14103C72.0829 8.8533 74.7637 13.6839 75.6933 19.4643C75.8029 20.1419 75.8959 20.8233 75.9944 21.5028V24.9021L76 24.904ZM39.9582 36.2426C39.8578 36.2704 39.8299 36.2704 39.8132 36.2833C39.737 36.3444 39.657 36.4018 39.5882 36.4722C37.863 38.2182 35.7585 39.0236 33.3139 38.9865C31.4343 38.9588 29.5548 38.9291 27.6753 38.8921C27.3797 38.8866 27.0804 38.8643 26.7922 38.8069C25.9668 38.644 25.5039 37.9349 25.6619 37.111C25.8144 36.3185 26.3963 35.9297 27.4485 35.939C29.5753 35.9612 31.7021 36.0112 33.8288 36.0093C35.2585 36.0075 36.5133 35.465 37.4429 34.3985C38.9208 32.7062 39.7146 30.6122 40.633 28.6033C40.923 27.9701 40.4862 27.2535 39.8541 26.9573C39.2406 26.6685 38.562 26.811 38.1196 27.348C37.9504 27.5553 37.8165 27.796 37.6938 28.0349C37.0822 29.2161 36.4836 30.403 35.8757 31.5842C35.4834 32.3452 34.922 32.9821 34.0333 33.0154C32.059 33.0913 30.0716 33.1747 28.1122 32.8969C26.0096 32.6007 25.1061 30.24 26.3665 28.5422C26.8424 27.9016 27.495 27.4406 28.0657 26.8999C28.4896 26.4981 28.7127 26.0464 28.6234 25.4539C28.4357 24.2041 28.497 22.9488 28.5546 21.6935C28.655 19.5624 27.8612 17.8516 26.0654 16.6444C25.2176 16.0742 24.2806 15.7002 23.2805 15.4854C17.6902 14.2856 12.8288 18.9533 13.9684 24.4356C14.2175 25.6353 14.7139 26.7462 15.5635 27.6387C17.1009 29.255 17.7572 31.1565 17.6456 33.3617C17.5843 34.5744 17.7646 35.7723 18.0453 36.948C20.3896 46.7888 31.109 52.4433 40.5791 48.8421C45.7827 46.8628 48.0582 42.1785 46.3962 36.8758C46.1675 36.1482 45.9184 35.4261 45.7232 34.691C45.4666 33.7283 45.8533 32.9617 46.662 32.7303C47.4986 32.4915 48.218 32.9025 48.5452 33.8394C48.7795 34.5133 48.9728 35.2002 49.1885 35.8797C49.248 36.0667 49.3019 36.2574 49.3837 36.4352C49.7127 37.1424 50.4638 37.4979 51.1591 37.2869C51.8209 37.085 52.2987 36.3981 52.1463 35.6723C51.8339 34.18 51.3896 32.7173 50.7873 31.3158C50.0288 29.5457 48.2329 28.4607 46.4965 28.6366C44.3716 28.8533 42.8156 30.1974 42.388 32.1971C42.2188 32.9877 42.3043 33.7616 42.546 34.5263C42.9532 35.8168 43.3807 37.0998 43.7526 38.4015C44.1262 39.7142 43.219 40.7436 42.0087 40.4326C41.3506 40.2641 41.0681 39.7605 40.8821 39.1754C40.5717 38.1978 40.2687 37.2183 39.9619 36.2426H39.9582ZM29.0045 30.1086C30.4658 30.1086 31.7132 30.1234 32.9606 30.1012C33.4645 30.0919 33.972 29.0902 33.7117 28.6459C33.2692 27.896 32.5963 27.4924 31.7262 27.422C31.5329 27.4072 31.3116 27.372 31.2057 27.5979C30.7576 28.5644 29.8764 29.1569 29.0027 30.1067L29.0045 30.1086Z" fill="#EAE6DB"/>
<path d="M0.0104676 22.6026C0.272597 15.7316 2.89575 9.93272 8.11602 5.4095C11.9253 2.11012 16.4019 0.321564 21.4753 0.0512445C26.0598 -0.193154 30.291 0.901085 34.2155 3.24139C34.8327 3.60984 35.2566 4.10604 35.1413 4.86331C35.0447 5.50207 34.6301 5.92237 33.9961 6.08159C33.4459 6.22046 32.9848 5.95754 32.5349 5.68908C30.2352 4.31711 27.7645 3.41913 25.0986 3.12474C18.5956 2.40451 12.9886 4.36155 8.53989 9.11621C3.17089 14.854 1.88627 21.6953 3.77695 29.1736C5.15824 34.6355 8.11974 39.268 11.7784 43.4931C12.1818 43.9597 12.6075 44.4096 12.9793 44.9002C13.5259 45.6186 13.459 46.4203 12.8548 46.961C12.2469 47.5053 11.3508 47.4701 10.7336 46.7888C5.69923 41.2176 1.67991 35.0984 0.380423 27.535C0.103421 25.9038 -0.0415864 24.2597 0.0104676 22.6026Z" fill="#EAE6DB"/>
<path d="M69.0936 22.1675C69.0898 22.5655 69.1586 22.9525 69.0601 23.3487C68.876 24.0893 68.3053 24.5596 67.5821 24.53C66.8608 24.5004 66.2771 23.9912 66.2008 23.2376C66.0744 21.9657 66.0224 20.6881 65.6357 19.4532C64.4198 15.5613 62.0477 12.6692 58.2738 10.9899C57.5933 10.6863 56.9761 10.3419 56.9055 9.50688C56.8125 8.40153 57.9224 7.67204 59.0694 8.10714C60.2016 8.53854 61.2687 9.10881 62.2522 9.81978C66.4723 12.8692 68.6938 17.0203 69.0936 22.1656V22.1675Z" fill="#EAE6DB"/>
<path d="M17.8315 50.3029C17.8204 51.0972 17.1567 51.7471 16.361 51.7416C15.5728 51.736 14.8477 50.9991 14.8626 50.2178C14.8775 49.4383 15.569 48.7736 16.3517 48.7884C17.1901 48.8032 17.8427 49.4716 17.8297 50.3029H17.8315Z" fill="#EAE6DB"/>
<path d="M53.3658 7.02401C54.1633 7.02401 54.8215 7.6887 54.8233 8.49225C54.8233 9.30136 54.1708 9.96235 53.3714 9.96235C52.5738 9.96235 51.9139 9.29951 51.9139 8.49596C51.9139 7.69426 52.5738 7.02401 53.3658 7.02401Z" fill="#EAE6DB"/>
</svg>
