<svg width="61" height="51" viewBox="0 0 61 51" fill="none" xmlns="http://www.w3.org/2000/svg">
<path d="M61 27.2426C60.8155 27.8636 60.7089 28.511 60.4066 29.0926C59.3996 31.0249 57.8627 32.1389 55.7278 32.3015C55.3428 32.3311 55.0898 32.4609 54.8305 32.7665C53.588 34.2305 52.0098 34.9025 50.1183 34.7661C49.5503 34.725 49.4358 34.9222 49.6871 35.4611C49.8478 35.8078 50.1501 35.9491 50.4667 36.0806C52.2691 36.8249 54.0732 37.5675 55.8757 38.3118C58.0187 39.1958 59.0909 40.8175 59.0957 43.1835C59.0973 44.4338 59.0861 45.6842 59.1005 46.9346C59.1084 47.6345 58.9143 48.2326 58.3591 48.6549C58.1682 48.8011 58.1396 48.967 58.1427 49.1806C58.1491 49.5076 58.1682 49.8395 58.1316 50.1632C58.0727 50.6758 57.7816 50.9863 57.2678 50.9962C56.7523 51.0061 56.4707 50.6988 56.3689 50.1944C56.3609 50.155 56.3641 50.1122 56.3609 50.0712C56.309 49.3844 55.9542 49.041 55.2966 49.041C54.8003 49.041 54.3039 49.059 53.8091 49.0344C53.4607 49.018 53.3494 49.1609 53.3812 49.4994C53.4003 49.7031 53.3955 49.9101 53.3796 50.1139C53.3366 50.6528 52.9851 51.0061 52.4966 50.9978C51.9796 50.988 51.6312 50.684 51.6217 50.1796C51.5867 48.479 51.5867 46.7768 51.6217 45.0763C51.6328 44.5636 52.0114 44.2597 52.511 44.2728C53.0073 44.2843 53.3366 44.5899 53.3701 45.1141C53.4066 45.6645 53.3971 46.2215 53.378 46.7736C53.3669 47.0907 53.4671 47.2057 53.7805 47.2008C54.8321 47.186 55.8837 47.1876 56.9368 47.2008C57.2168 47.204 57.3187 47.1087 57.3155 46.8113C57.3012 45.4378 57.3521 44.0625 57.2853 42.6922C57.2296 41.5404 56.6346 40.6647 55.6037 40.2063C54.1496 39.5573 52.6637 38.9822 51.1985 38.3578C50.9121 38.2362 50.7164 38.3348 50.4905 38.4909C49.3721 39.2697 48.2474 40.037 47.1242 40.8093C45.6224 41.8395 44.1222 41.8395 42.6235 40.8027C41.5194 40.0403 40.4074 39.2878 39.3113 38.5123C39.0217 38.3069 38.7799 38.2592 38.4395 38.4071C37.1238 38.9756 35.7938 39.508 34.467 40.0502C33.1147 40.6039 32.4434 41.6341 32.4386 43.1309C32.4354 44.2991 32.4529 45.4673 32.4291 46.6355C32.4211 47.0479 32.515 47.2172 32.9509 47.204C33.942 47.1745 34.9347 47.1827 35.9274 47.2008C36.2599 47.2073 36.3872 47.1038 36.3697 46.7506C36.3443 46.2593 36.3522 45.7664 36.3697 45.2751C36.3904 44.6606 36.7595 44.2597 37.2686 44.2613C37.7856 44.263 38.142 44.6589 38.1467 45.2833C38.1563 46.8623 38.1579 48.4396 38.1467 50.0186C38.142 50.6232 37.8127 50.9798 37.3004 50.9978C36.7674 51.0159 36.4095 50.6446 36.3681 50.0284C36.3225 49.369 35.9736 49.0393 35.3213 49.0393C34.8249 49.0393 34.3286 49.0558 33.8322 49.0344C33.4997 49.0196 33.3565 49.1346 33.3884 49.4895C33.409 49.713 33.4043 49.9414 33.3804 50.1648C33.3295 50.6577 33.0575 50.9502 32.5754 50.9913C32.0886 51.0324 31.7816 50.7711 31.6479 50.3045C31.5986 50.132 31.5986 49.9381 31.6082 49.7557C31.6368 49.2151 31.6241 48.7239 31.115 48.3591C30.8207 48.1471 30.6886 47.7462 30.6807 47.3766C30.6472 45.6776 30.5375 43.9689 30.7252 42.2798C30.9288 40.4412 31.9438 39.1498 33.5936 38.4383C35.4772 37.6283 37.3783 36.8626 39.2747 36.0855C39.6772 35.9212 40.0367 35.7174 40.1449 35.2426C40.2181 34.9222 40.2054 34.6856 39.7583 34.7448C39.044 34.8384 38.3313 34.7858 37.6361 34.5722C36.5224 34.2305 35.579 33.6094 34.8488 32.6745C34.6547 32.4264 34.4479 32.3311 34.1472 32.3081C31.2152 32.0879 29.1311 30.0308 28.7764 27.0372C28.7191 26.5476 28.8066 26.1351 29.0993 25.7178C30.2272 24.1125 30.5804 22.246 30.6266 20.3187C30.6791 18.1466 30.6377 15.9729 30.6504 13.8007C30.6886 7.58999 34.7502 2.48831 40.6397 1.23302C41.8169 0.981629 43.0069 1.00135 44.1969 1.01449C46.0774 1.03421 47.9594 0.912621 49.8223 1.38911C55.0421 2.72327 58.9939 7.76744 59.0846 13.321C59.1196 15.4734 59.0861 17.6258 59.0989 19.7782C59.1084 21.367 59.3216 22.923 59.9214 24.4001C60.1823 25.0409 60.5005 25.6472 60.9984 26.1335V27.2409L61 27.2426ZM44.8794 30.4892C49.0253 30.4892 52.6287 27.4036 53.3605 23.2269C53.7694 20.8971 53.8744 20.8018 56.1732 20.6687C56.8605 20.6293 57.2821 20.2514 57.3043 19.6582C57.3266 19.0585 56.8812 18.6247 56.1668 18.5902C55.653 18.5656 55.1359 18.5853 54.6205 18.5787C52.7544 18.559 51.6201 17.4122 51.6073 15.4783C51.6042 15.0314 51.4753 14.9361 51.0648 14.9574C49.4978 15.0412 47.9355 14.9657 46.3781 14.7389C44.2431 14.4267 42.2322 13.7334 40.2531 12.8527C39.0281 12.3072 38.0067 12.7738 38.142 14.1918C38.1786 14.5779 38.1483 14.9689 38.1467 15.3584C38.142 17.4368 37.0363 18.5705 35.0079 18.5804C34.4734 18.5837 33.9356 18.5672 33.4027 18.6132C32.8395 18.6625 32.4529 19.0947 32.4418 19.6024C32.4306 20.1479 32.822 20.5833 33.4059 20.6506C33.6413 20.6786 33.8815 20.6671 34.1186 20.6703C35.5233 20.6835 36.1454 21.2487 36.3252 22.6847C36.8915 27.1851 40.5124 30.4892 44.8778 30.4909L44.8794 30.4892ZM57.3012 16.9291C57.3012 15.6212 57.3377 14.3922 57.2948 13.1665C57.1182 8.15685 53.2953 3.74689 48.4955 3.00587C46.5817 2.71012 44.6519 2.858 42.7301 2.87936C39.7838 2.91057 37.3163 4.12808 35.2799 6.30841C32.5404 9.24126 32.2541 12.8905 32.4386 16.6777C32.445 16.8157 32.4847 16.9291 32.647 16.8815C33.5443 16.6268 34.4638 16.7944 35.3706 16.7237C35.999 16.6744 36.3379 16.2982 36.3554 15.641C36.3713 15.0265 36.3586 14.412 36.3618 13.7975C36.3649 13.2552 36.5256 12.7607 36.7436 12.2661C36.9456 11.8061 37.6902 11.5826 37.547 11.1406C37.407 10.7036 36.8263 10.4193 36.4397 10.0661C36.3808 10.0119 36.3252 9.95271 36.2711 9.89191C35.7906 9.36449 35.7413 8.83871 36.1343 8.43452C36.5272 8.03033 37.0522 8.08127 37.5342 8.59226C38.2597 9.35956 39.0838 9.99542 39.9715 10.5458C43.1501 12.5192 46.639 13.178 50.2901 13.1534C51.6217 13.1452 52.9405 12.9825 54.2625 12.8346C54.8257 12.7722 55.2394 13.1172 55.2728 13.6282C55.3094 14.1836 55.0262 14.5171 54.5091 14.6305C54.2578 14.6863 54 14.7093 53.7439 14.7373C53.4894 14.7652 53.3844 14.8737 53.3716 15.1645C53.3191 16.3261 53.6739 16.7237 54.8098 16.7369C55.6196 16.7451 56.4373 16.6613 57.298 16.9291H57.3012ZM40.1704 32.0124C40.1704 31.4669 40.0489 31.1202 39.806 30.9723C36.8072 29.1617 35.0397 26.4917 34.5609 22.9312C34.5195 22.6223 34.4065 22.504 34.109 22.5139C33.6334 22.5303 33.1465 22.5533 32.6947 22.389C32.3177 22.2526 32.2302 22.3709 32.1618 22.7439C31.9168 24.101 31.4904 25.3958 30.7347 26.5492C30.5852 26.7776 30.5741 26.9862 30.6138 27.2409C30.9113 29.1288 32.6597 30.6125 34.5259 30.458C35.2402 30.3989 35.649 30.6388 36.0436 31.2368C36.8215 32.4149 37.9479 32.9916 39.3479 32.9325C40.1704 32.898 40.1704 32.8914 40.1704 32.014V32.0124ZM55.1248 30.4679C57.1182 30.5895 58.8857 29.0992 59.1689 27.144C59.2007 26.9222 59.1514 26.7546 59.0336 26.5738C58.3177 25.4697 57.8643 24.2489 57.6432 22.9476C57.5509 22.4071 57.3998 22.2247 56.8541 22.4301C56.5328 22.55 56.1446 22.5369 55.793 22.5073C55.3475 22.4711 55.2298 22.6683 55.1694 23.0906C54.6746 26.5295 52.9453 29.1271 50.0626 30.8967C49.6823 31.13 49.5073 31.365 49.5694 31.807C49.5948 31.9877 49.5933 32.1783 49.5694 32.359C49.5153 32.7747 49.7269 32.8799 50.0801 32.916C51.6169 33.0672 52.8594 32.5201 53.7312 31.2105C54.1114 30.6404 54.506 30.2855 55.1232 30.4695L55.1248 30.4679ZM47.7876 31.9236C45.9071 32.4297 44.0824 32.4806 42.2592 31.9828C41.9124 31.8875 41.9585 32.0994 41.9569 32.3032C41.9569 33.1231 41.9394 33.9429 41.9601 34.7628C41.9824 35.6714 41.731 36.4617 41.0835 37.0894C40.9006 37.2668 40.8449 37.3753 41.0947 37.5429C42.0444 38.1754 42.9719 38.8442 43.9328 39.4587C44.5549 39.8563 45.239 39.8382 45.8562 39.4455C46.8012 38.8442 47.7112 38.1853 48.6419 37.5593C48.863 37.4114 48.8949 37.3013 48.6833 37.1009C47.9912 36.447 47.7621 35.6057 47.7828 34.6577C47.8019 33.7606 47.7876 32.8635 47.7876 31.9236Z" fill="#EAE6DB"/>
<path d="M7.68581 47.6871C7.68581 48.4462 7.69694 49.2036 7.68262 49.9627C7.67149 50.6282 7.36603 50.9831 6.83149 50.9995C6.27945 51.0159 5.939 50.6364 5.90241 49.9627C5.86847 49.3493 5.554 49.0426 4.959 49.0426C4.44355 49.0426 3.92651 49.0607 3.41106 49.036C3.05788 49.0196 2.89402 49.133 2.92425 49.5191C2.94334 49.7623 2.93697 50.0137 2.89879 50.2552C2.82402 50.7202 2.53766 50.9765 2.08425 50.9978C1.63085 51.0192 1.32698 50.7925 1.19812 50.3406C1.15994 50.2059 1.13608 50.0564 1.14721 49.9167C1.19653 49.2874 1.1488 48.7271 0.593579 48.2901C0.291308 48.0535 0.206991 47.6197 0.206991 47.2237C0.203809 45.6464 0.141764 44.0625 0.245172 42.4918C0.375626 40.5414 1.41607 39.1777 3.1597 38.4285C5.00673 37.6349 6.87127 36.8857 8.72784 36.1151C9.58375 35.7602 9.70147 35.5844 9.70466 34.6593C9.70784 33.6554 9.69511 32.6499 9.71102 31.646C9.71579 31.3239 9.63147 31.1317 9.3467 30.9608C6.35104 29.1797 4.60423 26.5065 4.09833 22.9805C4.04424 22.6059 3.92492 22.4958 3.58288 22.5089C3.08811 22.527 2.58857 22.5303 2.1113 22.3512C0.999258 21.9322 0.283354 21.1173 0.248354 19.903C0.2229 18.9961 -0.195507 18.1006 0.143355 17.1821C0.149718 17.1641 0.146537 17.1394 0.154491 17.1214C0.739942 15.8414 0.685851 14.5845 0.175173 13.2717C-0.220961 12.2563 0.0844917 11.2984 0.792442 10.4883C0.844941 10.4275 0.887895 10.3536 0.94835 10.3027C1.85039 9.54851 2.26402 8.58733 2.33084 7.37804C2.40402 6.04059 3.15493 5.12541 4.40219 4.74422C5.44741 4.42547 6.21422 3.84547 6.74399 2.83664C7.35808 1.66678 8.3683 1.07364 9.66647 1.29545C10.8565 1.49755 11.8683 1.24123 12.853 0.533075C13.9078 -0.224373 15.0564 -0.147149 16.0889 0.590582C16.9894 1.23302 17.8978 1.50083 18.9907 1.30202C20.4369 1.03914 21.5044 1.69471 22.19 2.99766C22.6323 3.83726 23.2512 4.38111 24.1564 4.63414C25.6789 5.05969 26.4839 6.13425 26.5555 7.75266C26.5952 8.67112 26.9214 9.40064 27.5943 10.002C28.805 11.0848 29.1057 12.4091 28.4725 13.9338C28.1241 14.7701 28.1161 15.5736 28.455 16.4263C28.7827 17.2479 28.9609 18.1105 28.6188 18.9977C28.5711 19.1209 28.6109 19.282 28.6141 19.4249C28.6459 21.1731 27.572 22.3873 25.8857 22.5024C25.6884 22.5155 25.4864 22.5319 25.2907 22.5089C24.9248 22.4678 24.7768 22.6042 24.7211 22.9969C24.2184 26.5558 22.4287 29.2175 19.4171 31.0068C19.1753 31.1514 19.0925 31.3124 19.0957 31.5901C19.1085 32.6564 19.1069 33.7211 19.0989 34.7875C19.0941 35.4168 19.3535 35.8144 19.9325 36.0493C21.8321 36.8183 23.73 37.5938 25.6121 38.4055C27.5673 39.2484 28.5823 40.7879 28.6157 42.983C28.6348 44.3353 28.6141 45.6891 28.622 47.0414C28.6252 47.6033 28.4979 48.1324 28.0732 48.4774C27.7073 48.7748 27.6293 49.1083 27.6643 49.5372C27.6818 49.7409 27.6754 49.9479 27.6579 50.1517C27.6134 50.6462 27.3493 50.9469 26.8689 50.9929C26.3566 51.0422 26.0464 50.7662 25.9127 50.2667C25.892 50.1895 25.8905 50.1057 25.8841 50.0235C25.8374 49.3696 25.5044 49.0426 24.885 49.0426C24.3886 49.0426 23.8907 49.0656 23.3975 49.036C22.995 49.0114 22.8614 49.1757 22.9043 49.57C22.925 49.7524 22.9139 49.9397 22.9012 50.1221C22.863 50.6462 22.5909 50.9535 22.0803 50.9962C21.5871 51.0373 21.21 50.7136 21.1432 50.1747C21.105 49.8723 21.1241 49.5602 21.1241 49.2529C21.1241 47.9204 21.1178 46.5879 21.1305 45.257C21.1353 44.7526 21.3691 44.3878 21.875 44.2893C22.2918 44.2087 22.6228 44.3813 22.8073 44.774C22.8821 44.9317 22.8996 45.1289 22.9043 45.3079C22.9171 45.7795 22.9234 46.2511 22.9043 46.7226C22.8916 47.0463 22.968 47.2106 23.3259 47.204C24.3568 47.186 25.3893 47.1892 26.4218 47.204C26.7225 47.2073 26.8434 47.1202 26.8386 46.79C26.8211 45.4378 26.8593 44.0839 26.8132 42.7316C26.7734 41.5667 26.1816 40.7074 25.165 40.2243C24.2296 39.7807 23.2543 39.4307 22.3062 39.0134C22.0596 38.905 21.8989 38.9937 21.7032 39.1054C16.8335 41.92 11.9621 41.9003 7.10036 39.089C6.86649 38.9543 6.68354 38.9378 6.44013 39.043C5.60014 39.4061 4.74742 39.7413 3.90424 40.0978C2.67766 40.617 2.01902 41.57 1.98243 42.9337C1.94902 44.2038 1.98243 45.4755 1.96493 46.7456C1.96016 47.0956 2.08107 47.209 2.41357 47.2024C3.42538 47.186 4.43719 47.186 5.449 47.2024C5.77832 47.2073 5.91354 47.1071 5.89604 46.7522C5.87377 46.2609 5.87695 45.768 5.89604 45.2767C5.92309 44.6557 6.28741 44.2613 6.79649 44.2646C7.31035 44.2679 7.65876 44.6573 7.6699 45.2899C7.68421 46.0884 7.67308 46.8886 7.67308 47.6871H7.68581ZM14.4312 12.69C12.5874 12.69 10.7419 12.6835 8.89807 12.6933C8.05808 12.6982 7.70967 13.0614 7.69058 13.9289C7.67944 14.4005 7.69058 14.8704 7.6874 15.3419C7.67944 17.4385 6.58649 18.5705 4.56764 18.582C3.99333 18.5853 3.41424 18.5689 2.84629 18.633C2.3213 18.6921 1.96493 19.1522 1.99834 19.6484C2.03652 20.207 2.32925 20.5619 2.87811 20.6391C3.13265 20.6753 3.39197 20.6671 3.6497 20.6703C5.0815 20.6835 5.7115 21.2684 5.86582 22.7324C6.3765 27.5991 11.0999 31.25 15.7692 30.3874C19.7464 29.6529 22.5066 26.6264 23.0077 22.4547C23.135 21.3916 23.7777 20.7525 24.8055 20.6835C25.0823 20.6638 25.3607 20.6786 25.6375 20.6703C26.4155 20.6441 26.8402 20.2678 26.8339 19.6139C26.8291 19.0043 26.4011 18.6149 25.663 18.587C25.068 18.564 24.4714 18.6017 23.878 18.5705C22.2934 18.4867 21.1894 17.3185 21.1337 15.6788C21.1146 15.1267 21.1321 14.573 21.1289 14.0193C21.1225 13.0236 20.8091 12.6933 19.8466 12.69C18.0426 12.6851 16.2369 12.69 14.4328 12.69H14.4312ZM26.74 16.8568C26.25 15.6985 26.2755 14.5878 26.7384 13.5214C27.1584 12.5553 26.9914 11.8143 26.2007 11.1456C25.2923 10.3766 24.8436 9.33163 24.8134 8.13056C24.788 7.12665 24.3568 6.55158 23.4071 6.30348C22.2568 6.0028 21.3914 5.28479 20.825 4.19544C20.7407 4.03442 20.6262 3.88984 20.5339 3.7321C20.2603 3.26712 19.8785 3.03545 19.3407 3.11924C19.2039 3.1406 19.0591 3.11596 18.9255 3.14553C17.5923 3.43964 16.4167 3.06831 15.338 2.26157C14.7923 1.85409 14.2212 1.71936 13.6389 2.17613C12.4665 3.0946 11.1699 3.44128 9.71897 3.13239C8.99352 2.97794 8.48921 3.29012 8.16308 3.94899C7.5299 5.22728 6.53877 6.04552 5.19446 6.39878C4.43401 6.59923 4.09515 7.10201 4.05856 7.90217C4.00128 9.17554 3.62106 10.3273 2.62834 11.1587C1.83289 11.8258 1.67698 12.5717 2.10016 13.5362C2.53288 14.522 2.57743 15.5572 2.20039 16.589C2.17493 16.658 2.15425 16.7484 2.26402 16.8256C3.06584 16.6876 3.89788 16.7517 4.72832 16.7303C5.53809 16.7089 5.8865 16.3524 5.90241 15.5243C5.91354 14.9295 5.88809 14.3347 5.91195 13.7416C5.97559 12.0985 7.05899 10.8761 8.58944 10.863C12.4792 10.8268 16.3689 10.8285 20.2587 10.863C21.77 10.8761 22.8741 12.1084 22.9155 13.6857C22.9314 14.2805 22.9139 14.8753 22.9234 15.4684C22.9377 16.3294 23.2957 16.7106 24.1166 16.7303C24.9646 16.7517 25.8141 16.6876 26.7448 16.8552L26.74 16.8568ZM9.0683 38.0226C12.0958 39.8497 17.1962 39.6887 19.7766 37.9832C19.6605 37.929 19.5539 37.8748 19.4457 37.8288C17.8803 37.1617 17.3267 36.3188 17.3235 34.5903C17.3235 33.8526 17.306 33.1132 17.3298 32.3771C17.3426 31.9992 17.2296 31.9433 16.8907 32.0271C15.2235 32.4412 13.5483 32.4478 11.8842 32.0058C11.5087 31.9056 11.4865 32.0633 11.4928 32.359C11.5024 32.9127 11.4531 33.4697 11.5024 34.0185C11.6821 35.9902 10.979 37.3671 9.0858 37.9832C9.07625 37.9865 9.07466 38.0111 9.0683 38.0243V38.0226Z" fill="#EAE6DB"/>
<path d="M44.8237 26.2929C43.9599 26.3093 43.1008 26.0366 42.3324 25.4812C41.801 25.0984 41.6785 24.5742 41.9856 24.1158C42.2767 23.6804 42.7826 23.5983 43.2949 23.9351C44.3592 24.6367 45.4076 24.6301 46.4703 23.9302C46.9778 23.5966 47.4901 23.687 47.7749 24.1241C48.0628 24.566 47.9467 25.0902 47.4599 25.4549C46.6978 26.0251 45.8387 26.2945 44.8222 26.2929H44.8237Z" fill="#EAE6DB"/>
<path d="M49.5694 19.1719C49.5694 19.3345 49.5821 19.4989 49.5678 19.6615C49.5201 20.1873 49.1526 20.5553 48.6753 20.5323C48.1726 20.5077 47.8671 20.2103 47.8035 19.7026C47.7637 19.3822 47.7796 19.0503 47.7924 18.725C47.8162 18.1121 48.1726 17.7309 48.696 17.7359C49.221 17.7408 49.5519 18.1203 49.5742 18.7447C49.5789 18.8876 49.5742 19.0306 49.5742 19.1735C49.5742 19.1735 49.571 19.1735 49.5694 19.1735V19.1719Z" fill="#EAE6DB"/>
<path d="M41.9522 19.1571C41.9522 19.3198 41.9633 19.4841 41.9506 19.6467C41.9076 20.1791 41.556 20.5438 41.074 20.5307C40.5665 20.5175 40.2579 20.2202 40.1895 19.7157C40.1417 19.3559 40.1529 18.9813 40.1799 18.6165C40.2197 18.0809 40.584 17.7359 41.0629 17.7342C41.5735 17.7326 41.9172 18.0908 41.9506 18.6675C41.9601 18.8301 41.9506 18.9944 41.9506 19.1571C41.9506 19.1571 41.9506 19.1571 41.949 19.1571H41.9522Z" fill="#EAE6DB"/>
<path d="M14.358 26.2929C13.4719 26.3077 12.5969 26.0251 11.8206 25.4401C11.3258 25.0688 11.2256 24.5611 11.5294 24.1125C11.8142 23.6919 12.3121 23.5884 12.7878 23.9072C13.8903 24.6449 14.9673 24.635 16.0667 23.8973C16.5344 23.5835 17.0403 23.7018 17.3171 24.1306C17.586 24.548 17.4841 25.0869 17.0451 25.4221C16.2735 26.0152 15.3969 26.2945 14.3596 26.2929H14.358Z" fill="#EAE6DB"/>
<path d="M19.1085 19.1308C19.1085 20.1199 18.8253 20.5537 18.1953 20.5323C17.5987 20.5126 17.3219 20.069 17.3219 19.1308C17.3219 19.0092 17.3171 18.886 17.3235 18.7644C17.3569 18.1055 17.7085 17.7194 18.2526 17.7359C18.7839 17.7523 19.0846 18.1138 19.1069 18.7644C19.1116 18.886 19.1069 19.0092 19.1069 19.1308H19.1085Z" fill="#EAE6DB"/>
<path d="M11.5024 19.1637C11.4928 19.3674 11.5024 19.5728 11.4706 19.7732C11.399 20.2382 11.111 20.4962 10.6671 20.5241C10.2233 20.552 9.89079 20.3385 9.77625 19.885C9.65216 19.3871 9.65057 18.8712 9.77625 18.375C9.89079 17.9215 10.2217 17.7129 10.6687 17.7424C11.1174 17.772 11.4021 18.03 11.469 18.4933C11.5008 18.7118 11.4737 18.9402 11.4737 19.1637C11.4833 19.1637 11.4912 19.1637 11.5008 19.1637H11.5024Z" fill="#EAE6DB"/>
</svg>
