<svg width="26" height="26" viewBox="0 0 26 26" fill="none" xmlns="http://www.w3.org/2000/svg">
<path d="M19.2392 14.9399C19.1885 14.9155 17.2931 13.9821 16.9564 13.8609C16.8189 13.8115 16.6717 13.7634 16.5151 13.7634C16.259 13.7634 16.0441 13.8908 15.8767 14.1414C15.6873 14.4228 15.1143 15.093 14.9372 15.2929C14.9141 15.3192 14.8826 15.3507 14.8637 15.3507C14.8468 15.3507 14.5534 15.2298 14.4646 15.1915C12.4314 14.3081 10.888 12.1842 10.6764 11.8261C10.6462 11.7747 10.6449 11.7513 10.6446 11.7513C10.6521 11.724 10.7203 11.6555 10.7557 11.62C10.8591 11.518 10.9709 11.3831 11.0791 11.2531C11.1305 11.1914 11.1818 11.1296 11.2322 11.0714C11.3892 10.8888 11.459 10.7471 11.5403 10.5826L11.5829 10.4972C11.7808 10.1039 11.6118 9.77242 11.5572 9.66518C11.5123 9.57547 10.7119 7.644 10.627 7.44087C10.4223 6.9511 10.1519 6.72327 9.77618 6.72327C9.74141 6.72327 9.77618 6.72327 9.62993 6.72945C9.45183 6.73692 8.48236 6.86465 8.05369 7.13472C7.59901 7.42137 6.83006 8.33495 6.83006 9.94143C6.83006 11.3874 7.74754 12.7527 8.14176 13.272C8.15151 13.285 8.16939 13.3117 8.19571 13.3497C9.70436 15.5532 11.5855 17.186 13.4919 17.9478C15.3275 18.681 16.1969 18.7658 16.6909 18.7658C16.8985 18.7658 17.0646 18.7496 17.2115 18.7349L17.3045 18.7262C17.9385 18.6699 19.3321 17.9478 19.649 17.067C19.8986 16.3732 19.9646 15.6153 19.7985 15.34C19.6848 15.1528 19.4885 15.0589 19.2405 14.9396L19.2392 14.9399Z" fill="#4A4E69"/>
<path d="M13.2313 0C6.18981 0 0.461045 5.68588 0.461045 12.6743C0.461045 14.9347 1.06587 17.1473 2.21182 19.084L0.018396 25.5541C-0.0225539 25.6747 0.00799602 25.8083 0.0970459 25.8989C0.161396 25.9646 0.248821 26 0.338196 26C0.372321 26 0.406771 25.9948 0.44057 25.9841L7.18691 23.8404C9.03323 24.8267 11.1197 25.3474 13.2313 25.3474C20.272 25.3474 26.0005 19.6625 26.0005 12.6743C26.0005 5.6862 20.2724 0 13.2313 0ZM13.2313 22.7074C11.2442 22.7074 9.31956 22.1338 7.66531 21.048C7.60974 21.0116 7.54506 20.9927 7.48006 20.9927C7.44561 20.9927 7.41116 20.9979 7.37769 21.0086L3.99802 22.0828L5.08904 18.864C5.12446 18.7596 5.10659 18.6449 5.04159 18.5562C3.78189 16.8347 3.11597 14.8008 3.11597 12.6743C3.11597 7.14155 7.65361 2.63998 13.2313 2.63998C18.8089 2.63998 23.3452 7.14122 23.3452 12.6743C23.3452 18.2065 18.8082 22.7071 13.2313 22.7071V22.7074Z" fill="#4A4E69"/>
</svg>
