<svg width="70" height="70" viewBox="0 0 70 70" fill="none" xmlns="http://www.w3.org/2000/svg">
<path d="M33.6201 69.9945C33.0501 69.8648 32.4745 69.7534 31.91 69.6018C26.8089 68.2228 23.4435 64.9844 22.1993 59.8775C20.946 54.7378 22.4624 50.2976 26.407 46.7377C26.7724 46.4071 26.9624 46.0729 27.0446 45.6016C27.209 44.661 27.4191 43.7277 27.6274 42.7961C27.9472 41.355 27.6768 40.0418 26.818 38.8454C26.6847 38.6609 26.5476 38.4783 26.4289 38.2847C26.0945 37.7367 26.1895 37.1632 26.6591 36.8326C27.1305 36.502 27.6987 36.6025 28.1025 37.1121C29.5915 38.9897 30.167 41.0847 29.5915 43.4482C29.5111 43.7788 29.4435 44.1149 29.3759 44.4491C29.3631 44.5112 29.3814 44.5788 29.3887 44.7341C30.1633 44.3907 31.1262 44.4327 31.2906 43.3057C31.3253 43.0738 31.5044 42.8582 31.6323 42.6427C32.5202 41.1432 32.3613 39.5486 31.1755 38.2445C30.6548 37.671 30.083 37.1431 29.5878 36.5495C27.7919 34.3942 26.8308 31.912 26.7669 29.0992C26.7212 27.1266 26.1768 25.3476 24.7206 23.669C24.7462 25.4079 24.6548 26.9622 24.7992 28.5147C24.938 30.018 25.2815 31.4737 25.8095 32.891C26.0836 33.6253 25.857 34.2244 25.2742 34.4271C24.6621 34.639 24.1816 34.3413 23.8838 33.5778C23.5769 32.7924 23.3284 31.9869 23.1622 31.1613C23.0891 30.8034 22.921 30.6225 22.583 30.502C21.5672 30.1403 20.5367 29.8828 19.4478 29.9011C18.8321 29.912 18.2164 29.9248 17.6025 29.8974C16.5483 29.8499 15.5927 29.9705 14.6409 30.5897C13.4295 31.3769 12.0154 31.4828 10.6324 30.9842C9.88144 30.7139 9.09764 30.8216 8.34308 30.6499C6.04102 30.1294 4.42774 28.7997 3.54346 26.6079C3.38999 26.228 3.25114 25.8426 3.00266 25.5102C1.61229 23.6453 1.60863 21.6654 2.60071 19.6581C2.8565 19.143 2.81082 18.8124 2.50936 18.3777C1.38756 16.7539 0.539817 15.0169 0.179891 13.0425C-1.08259 6.10361 4.46977 -0.327486 11.5112 0.0140696C14.2791 0.147404 16.5958 1.31636 18.4429 3.39309C19.4642 4.54196 20.2663 5.83147 20.9277 7.21595C21.9545 9.36391 23.7651 10.3831 26.0525 10.6552C26.9697 10.7648 27.8649 10.5895 28.7437 10.3137C31.3418 9.50273 34.0056 9.27259 36.7133 9.44063C36.7589 9.44428 36.8046 9.44428 36.8503 9.44976C37.5665 9.52647 38.0233 9.98675 37.9703 10.5731C37.9173 11.1539 37.455 11.5393 36.7535 11.49C33.9691 11.2927 31.2596 11.647 28.5958 12.4671C27.4484 12.8196 26.259 12.8251 25.0787 12.5913C24.5525 12.4872 24.0355 12.3356 23.3595 12.1676C26.2772 16.153 30.0409 18.2864 34.8515 18.3448C39.8083 18.4051 43.6944 16.2663 46.5811 12.2461C45.3935 12.5986 44.2005 12.7996 42.9672 12.7192C42.4648 12.6863 41.9696 12.6151 41.4873 12.4763C40.8478 12.2936 40.5171 11.8206 40.6286 11.2817C40.7492 10.6954 41.2498 10.3648 41.9294 10.5036C43.3271 10.7904 44.7047 10.7868 46.0074 10.1657C47.4069 9.49907 48.5433 8.58035 49.2284 7.08992C50.4325 4.47073 52.1389 2.2497 54.8265 0.963849C60.5908 -1.79416 67.8477 1.62687 69.5853 7.9155C69.7369 8.46162 69.863 9.01323 70 9.563V9.83698C69.7734 10.3758 69.4537 10.7995 68.7868 10.7119C68.0688 10.6151 67.9409 10.0489 67.835 9.46985C67.0238 5.03877 63.2838 1.93555 58.8478 2.05792C56.595 2.12002 54.7114 3.0424 53.2004 4.71365C52.0549 5.97941 51.2528 7.4534 50.5914 9.01323C49.5372 11.5009 48.2985 13.8608 46.3436 15.7968C38.8107 23.2563 26.0891 21.4279 20.9807 12.1402C20.343 10.9822 19.7968 9.78218 19.2815 8.56573C18.8266 7.49175 18.2474 6.49083 17.5605 5.54836C14.0672 0.761108 8.35039 1.3675 4.97403 4.41776C1.85345 7.23604 1.17014 12.0087 3.28402 15.7512C3.34066 15.8498 3.40095 15.9466 3.45942 16.0452C4.35284 17.5375 4.36928 17.5302 5.8236 16.5694C6.17439 16.3375 5.92591 16.1804 5.82543 16.0233C5.16952 15.006 4.55929 13.9776 4.27976 12.7758C3.22373 8.24062 6.62567 3.95383 11.2133 4.08716C13.4971 4.15474 15.0848 5.39493 16.2596 7.24335C16.5702 7.73285 16.446 8.23149 15.9746 8.56939C15.5325 8.88537 15.0684 8.83788 14.6701 8.45614C14.5239 8.3155 14.4125 8.14016 14.2882 7.9776C12.2639 5.33101 8.48376 5.59585 6.83578 8.52738C5.88206 10.2242 5.9113 11.9648 6.80837 13.6872C7.00752 14.069 7.31811 14.4014 7.47524 14.7977C8.04344 16.2425 9.28948 16.5366 10.6031 16.6242C13.552 16.8215 15.5306 18.2827 16.6031 21.0206C16.9996 22.0343 17.8546 22.8234 18.041 23.943C18.0647 24.0818 18.2018 24.0873 18.315 24.0891C19.636 24.1019 20.9587 24.1695 22.1975 23.543C22.5464 23.3659 22.6634 23.1613 22.6963 22.7649C22.7748 21.848 22.5062 21.1521 21.8704 20.4489C19.7657 18.1238 18.072 15.5064 16.6798 12.6973C16.4496 12.2315 16.3893 11.7785 16.7566 11.3621C17.0416 11.037 17.4216 10.9785 17.8217 11.0881C18.2383 11.2014 18.41 11.5612 18.5836 11.9119C19.784 14.3302 21.2438 16.5822 22.9904 18.637C24.1122 19.9558 25.3034 21.2142 26.4399 22.522C27.98 24.2919 28.7602 26.3814 28.8004 28.712C28.8515 31.6746 29.935 34.1623 32.058 36.2007C33.2657 37.3605 34.1043 38.6847 34.2486 40.3943C34.3454 41.5212 34.0421 42.5514 33.4904 43.6199C34.5409 43.4738 35.5111 43.4756 36.4648 43.5998C36.5488 43.4062 36.4337 43.3057 36.3807 43.1888C35.3594 40.9696 35.7248 38.9313 37.223 37.0664C37.6633 36.5166 38.2005 36.0454 38.6718 35.5212C40.3363 33.6673 41.2206 31.4846 41.2681 29.0024C41.3192 26.3029 42.2346 23.985 44.0744 22.0161C46.6615 19.2489 49.1389 16.3978 50.9239 13.0187C51.5415 11.8516 52.1042 10.6589 52.6231 9.44428C53.0177 8.51825 53.5037 7.64701 54.0865 6.82691C57.1139 2.57299 61.9373 3.90086 64.1864 6.36115C66.1559 8.51459 66.5414 11.8461 65.1547 14.5256C65.0597 14.7064 64.9574 14.8836 64.8514 15.0589C64.592 15.4882 64.1023 15.9283 64.1297 16.3357C64.159 16.7758 64.93 16.785 65.2808 17.1211C65.6206 17.4462 65.8143 17.364 66.0481 16.9768C66.5761 16.0982 67.1151 15.2325 67.4732 14.2626C67.7253 13.5776 68.2899 13.3183 68.8727 13.5521C69.4062 13.7676 69.5999 14.3174 69.377 14.9932C68.9421 16.3064 68.1839 17.4462 67.433 18.5859C67.2174 18.9128 67.2266 19.1539 67.402 19.5046C68.4434 21.5777 68.4963 23.6069 67.0512 25.5449C66.8173 25.8572 66.6931 26.2261 66.5433 26.5841C65.4507 29.1851 63.5012 30.5951 60.6748 30.7613C60.2838 30.7851 59.9038 30.8399 59.5366 30.9659C57.8301 31.5504 56.2552 31.2326 54.7991 30.2426C54.4373 29.9979 54.0884 29.8919 53.6608 29.9011C52.5208 29.923 51.3825 29.9157 50.2425 29.9212C49.2449 29.9248 48.3168 30.2243 47.3886 30.5495C47.0762 30.6591 46.9775 30.8691 46.9173 31.1467C46.3326 33.8372 45.1816 36.2755 43.5208 38.4564C42.3844 39.9486 42.0738 41.5468 42.5488 43.3441C42.7699 44.1788 42.9234 45.0318 43.0695 45.8829C43.1262 46.208 43.2961 46.409 43.5244 46.6062C46.7912 49.4373 48.3789 53.0099 48.2674 57.3369C48.1085 63.5232 43.0969 69.0721 36.949 69.8612C36.748 69.8868 36.5342 69.8575 36.3606 70H33.6256L33.6201 69.9945ZM44.142 63.2146C43.8661 63.0429 43.6048 62.9022 43.3673 62.7305C42.8795 62.378 42.7553 61.8209 43.0403 61.3515C43.3271 60.8785 43.8624 60.7323 44.4087 60.9862C44.5531 61.0538 44.6956 61.1305 44.8235 61.2237C45.0939 61.4209 45.2437 61.3661 45.3679 61.0483C45.7132 60.1534 45.9727 59.2401 46.1243 58.2903C46.1919 57.8666 46.0585 57.7789 45.6785 57.788C44.8819 57.8063 44.0835 57.8099 43.2851 57.7844C42.5616 57.7625 42.0957 57.3095 42.1213 56.7122C42.1469 56.1332 42.5927 55.7551 43.2979 55.7442C44.0963 55.7332 44.8929 55.7259 45.6913 55.746C46.1006 55.757 46.1864 55.6218 46.1261 55.2218C45.9818 54.2702 45.7224 53.3569 45.3716 52.4638C45.2601 52.177 45.1633 52.0875 44.8417 52.2629C43.8953 52.778 43.413 52.7286 43.0512 52.1588C42.6877 51.5852 42.8923 51.1031 43.8314 50.504C44.1475 50.303 44.0908 50.1788 43.9045 49.9377C43.4404 49.3423 42.9179 48.8035 42.357 48.3012C41.8576 47.8543 41.4136 47.8915 41.0251 48.4126C40.6615 48.9003 40.1225 49.0336 39.6457 48.7542C39.1779 48.482 39.0208 47.9249 39.2675 47.3843C39.3332 47.24 39.4118 47.0975 39.5031 46.9697C39.6968 46.6975 39.6475 46.5514 39.3241 46.4199C38.4325 46.0583 37.5153 45.8135 36.5671 45.6583C36.1688 45.5925 36.0519 45.7331 36.0647 46.124C36.0902 46.8985 36.0811 47.6729 36.0683 48.4473C36.0555 49.2035 35.6737 49.6382 35.0488 49.6455C34.4112 49.6528 34.033 49.2291 34.0239 48.4692C34.0129 47.6948 34.0074 46.9204 34.0275 46.1459C34.0367 45.7788 33.9581 45.5889 33.5379 45.6546C32.5659 45.8062 31.6286 46.0601 30.7188 46.4382C30.4137 46.5642 30.3972 46.6957 30.5598 46.9405C30.6731 47.1103 30.79 47.2875 30.8503 47.4793C31.0093 47.9834 30.9289 48.4455 30.4465 48.7341C29.9459 49.0355 29.4819 48.9277 29.1091 48.4839C28.994 48.3469 28.8954 48.1861 28.8205 48.0217C28.667 47.6857 28.4971 47.6564 28.2066 47.8939C27.6219 48.3706 27.0702 48.8765 26.5732 49.4446C26.1457 49.9341 26.1932 50.3755 26.7157 50.7688C27.1981 51.1323 27.3223 51.6747 27.0318 52.1515C26.7413 52.6263 26.2133 52.7633 25.6579 52.5058C25.5336 52.4492 25.4039 52.3926 25.2998 52.3104C24.9691 52.0474 24.8248 52.1569 24.6804 52.5241C24.3442 53.3752 24.1177 54.2519 23.9496 55.1487C23.8692 55.5798 23.9569 55.7698 24.4502 55.7515C25.2925 55.7168 26.1366 55.7314 26.9788 55.7551C27.5361 55.7716 27.8704 56.1003 27.9216 56.6483C27.9764 57.2291 27.6859 57.609 27.1177 57.7424C26.8984 57.7935 26.6664 57.7899 26.438 57.7917C25.731 57.7972 25.0239 57.8063 24.3187 57.7899C23.9734 57.7807 23.8783 57.9159 23.935 58.2374C24.0611 58.9552 24.1999 59.6693 24.4539 60.3561C24.5781 60.694 24.6055 61.1524 24.9106 61.3095C25.1682 61.4429 25.4514 61.0684 25.7401 60.9515C26.2955 60.7269 26.7377 60.8839 27.0373 61.368C27.3278 61.8392 27.2163 62.2922 26.8089 62.6538C26.6573 62.789 26.48 62.9077 26.2937 62.9862C25.9191 63.1415 25.9721 63.315 26.1877 63.5853C26.6445 64.157 27.1378 64.6904 27.6859 65.1744C28.1999 65.6274 28.6609 65.589 29.069 65.0593C29.4289 64.5917 29.8929 64.4821 30.399 64.7415C30.927 65.0137 31.0221 65.4995 30.8412 66.031C30.7699 66.2429 30.6274 66.431 30.5141 66.6283C30.399 66.8292 30.4374 66.9388 30.6676 67.0356C31.6177 67.4356 32.5933 67.7187 33.6201 67.8411C34.0019 67.8867 34.0257 67.6858 34.0239 67.4027C34.0166 66.6283 34.0166 65.8538 34.0239 65.0794C34.0312 64.3105 34.3856 63.8684 34.9995 63.8447C35.6444 63.821 36.0592 64.2812 36.0701 65.0648C36.0829 65.863 36.0866 66.6593 36.0665 67.4575C36.0574 67.8009 36.167 67.8831 36.5032 67.8393C37.2303 67.7443 37.9374 67.5835 38.6262 67.3406C38.966 67.2201 39.4045 67.1379 39.589 66.884C39.7553 66.6557 39.3497 66.3488 39.2382 66.0548C39.0299 65.5086 39.1524 65.0447 39.653 64.7561C40.1481 64.4712 40.6231 64.5753 40.9885 65.0301C41.1018 65.1707 41.195 65.3315 41.2717 65.4958C41.4051 65.7826 41.5403 65.8612 41.8271 65.6347C42.7041 64.9369 43.4952 64.1625 44.1456 63.2109L44.142 63.2146ZM50.511 24.0891C50.9806 24.0891 51.3222 24.0928 51.6639 24.0873C51.8174 24.0837 52.0238 24.1111 52.0549 23.9028C52.2394 22.6626 53.1822 21.7951 53.6261 20.6699C54.5013 18.4453 56.2132 17.121 58.5555 16.7174C59.4708 16.5603 60.4026 16.5037 61.3015 16.2425C61.5463 16.1713 61.7674 16.1165 61.9135 15.8699C62.3575 15.1283 62.8581 14.4197 63.2729 13.6617C63.9854 12.363 64.1151 10.9749 63.6858 9.563C63.0865 7.59038 61.6505 6.52188 59.6937 6.18215C57.8868 5.868 56.5932 6.76481 55.6066 8.20774C55.064 9.00227 54.6529 9.86072 54.2802 10.7411C52.7893 14.2681 50.8143 17.5046 48.2711 20.3667C47.6316 21.0864 47.3155 21.7786 47.3868 22.7321C47.4215 23.1996 47.5859 23.417 47.9769 23.5887C48.8283 23.9613 49.7126 24.1238 50.5092 24.0891H50.511ZM7.94479 18.164C6.45575 18.2791 5.41434 18.9804 4.66709 20.1329C3.8705 21.3604 3.59827 23.0663 4.71824 24.3923C5.04163 24.7759 5.22616 25.2508 5.40521 25.7202C6.12323 27.5997 7.56111 28.639 9.54892 28.712C10.0075 28.7284 10.4697 28.7632 10.89 28.9348C13.1628 29.8645 15.1707 28.1056 15.7755 26.5001C16.2304 25.2965 16.2176 24.1458 15.3881 23.0809C15.0209 22.6097 14.8144 22.0562 14.5861 21.5083C13.8753 19.8005 12.5964 18.838 10.7365 18.6955C10.0532 18.6425 9.38083 18.5603 8.72858 18.3338C8.4527 18.2389 8.15489 18.2078 7.94479 18.164ZM54.0007 25.0407C53.9696 25.3841 54.0536 25.7403 54.1523 26.0892C54.7022 28.0545 56.8983 29.8791 59.1547 28.9421C59.595 28.7595 60.081 28.7266 60.5634 28.7102C62.4543 28.6463 63.969 27.5723 64.6376 25.8115C64.8167 25.3421 64.9629 24.8362 65.3027 24.4764C66.6785 23.0243 66.1669 20.3996 64.4202 19.0389C63.43 18.2681 62.3465 17.9338 61.1023 18.4087C60.525 18.6297 59.9038 18.6571 59.2881 18.6991C57.7077 18.8051 56.5037 19.5704 55.7637 20.9384C55.2686 21.8535 54.8996 22.8343 54.3003 23.7019C54.0427 24.0764 53.9842 24.5494 54.0007 25.0426V25.0407ZM45.2894 23.7421C43.9666 25.2745 43.3655 26.9403 43.3271 28.8234C43.2595 32.0563 42.1268 34.8545 39.9033 37.2052C39.5433 37.5851 39.156 37.9413 38.818 38.3395C37.9465 39.3605 37.6195 40.5295 38.0342 41.8317C38.2736 42.5861 38.8746 43.1852 39.0208 43.9925C39.0354 44.0729 39.1725 44.1532 39.2693 44.1934C39.7297 44.3815 40.1956 44.5551 40.656 44.7341C40.793 44.5003 40.6651 44.3121 40.6231 44.1185C40.4386 43.2509 40.2431 42.3888 40.2614 41.4902C40.2961 39.8226 40.9757 38.4198 41.955 37.1176C44.9166 33.1796 45.6749 28.6773 45.2875 23.7421H45.2894ZM22.6743 27.0627C22.6743 26.7083 22.6506 26.4325 22.6798 26.164C22.731 25.6782 22.5757 25.585 22.1189 25.7567C21.2584 26.08 20.3503 26.144 19.4368 26.144C18.0739 26.144 18.0885 26.1567 17.6171 27.3915C17.4746 27.7641 17.5276 27.859 17.924 27.8572C19.0806 27.8554 20.2407 27.7988 21.3899 28.0234C21.8065 28.1056 22.3181 28.4636 22.6049 28.2243C22.8863 27.9869 22.6323 27.4079 22.6743 27.0627ZM47.3795 27.1613C47.3795 27.2819 47.4051 27.5796 47.374 27.87C47.3338 28.2481 47.4361 28.3759 47.8216 28.2481C48.98 27.8627 50.1822 27.8408 51.388 27.8481C52.5555 27.8572 52.5171 27.859 52.2321 26.7595C52.0932 26.2243 51.8356 26.1093 51.3332 26.1293C50.4507 26.164 49.5664 26.1549 48.6895 25.9741C48.2784 25.8901 47.7668 25.4937 47.5037 25.7458C47.2772 25.9631 47.4142 26.5567 47.3813 27.1595L47.3795 27.1613Z" fill="#EAE6DB"/>
<path d="M38.4325 56.7232C38.4453 59.0246 36.2857 60.6776 34.0823 59.9981C33.558 59.8355 33.2437 59.9196 32.913 60.3141C32.6353 60.6447 32.3192 60.9461 31.9904 61.2273C31.5208 61.6255 30.9727 61.5999 30.5763 61.1999C30.1981 60.8182 30.1926 60.2337 30.5689 59.7771C30.6694 59.6547 30.7791 59.5342 30.9033 59.4355C31.6451 58.8438 32.153 58.2136 31.6816 57.1652C31.4697 56.6921 31.625 56.1204 31.8314 55.6328C31.9794 55.2857 31.9246 55.0684 31.6524 54.809C30.8759 54.0729 30.1268 53.3058 29.3741 52.5423C28.8077 51.967 28.751 51.3734 29.1987 50.9241C29.6627 50.4601 30.2236 50.5094 30.8101 51.0866C31.5574 51.8209 32.3119 52.5496 33.0281 53.3149C33.3186 53.6255 33.5525 53.6693 33.9618 53.5323C36.1798 52.7926 38.4161 54.4072 38.4288 56.7232H38.4325ZM36.3771 56.7341C36.3698 55.9908 35.7705 55.388 35.036 55.3862C34.3125 55.3862 33.6895 56.0017 33.6786 56.7305C33.6676 57.4885 34.3034 58.1168 35.0689 58.1004C35.8144 58.0839 36.3844 57.4885 36.3771 56.7323V56.7341Z" fill="#EAE6DB"/>
</svg>
