<svg width="71" height="65" viewBox="0 0 71 65" fill="none" xmlns="http://www.w3.org/2000/svg">
<path d="M0 38.4859C0.0451554 38.413 0.112889 38.3436 0.13373 38.2639C0.595705 36.5017 1.73327 35.4003 3.45786 34.8783C6.04041 34.0978 8.61948 33.3017 11.2142 32.5611C11.7717 32.4015 11.8707 32.1501 11.9176 31.6124C12.0357 30.2474 11.6918 29.2466 10.589 28.2736C8.58648 26.508 7.55833 24.1284 7.23529 21.4747C7.19014 21.1036 7.0512 20.9249 6.72295 20.7619C4.60412 19.7091 4.11609 17.2116 5.67395 15.4147C5.89279 15.1632 5.95705 14.9152 5.95531 14.603C5.94663 13.0108 5.99699 11.4169 5.94315 9.82643C5.75732 4.32488 10.1044 0.148412 15.0003 0.0686289C18.4182 0.0113933 21.8413 -0.070124 25.2558 0.111989C27.1072 0.210851 28.3663 1.28792 29.0679 2.98591C29.1982 3.29984 29.3719 3.53225 29.6289 3.74558C31.0218 4.90244 31.7616 6.38536 31.7703 8.20476C31.7807 10.3051 31.7808 12.4055 31.7686 14.5059C31.7669 14.8961 31.8641 15.1927 32.1298 15.498C33.5835 17.1751 33.0816 19.7317 31.093 20.7203C30.6866 20.9232 30.5181 21.1365 30.4695 21.584C30.4035 22.198 30.2403 22.805 30.0839 23.4051C30.0041 23.7121 30.0093 23.8995 30.341 24.0608C32.3521 25.0442 34.3529 26.0449 36.3501 27.0526C36.6106 27.1844 36.8138 27.1445 37.0639 27.0301C38.9309 26.1785 38.9587 26.1837 39.056 24.1527C39.148 22.2396 39.1828 20.3231 39.2401 18.41C39.4433 11.6111 44.565 5.91013 51.3261 4.9562C59.0703 3.86352 66.1649 9.17776 67.2695 16.9028C67.5317 18.7361 67.4344 20.5885 67.5091 22.4304C67.6793 26.652 68.0354 30.8562 68.5824 35.0448C68.6971 35.9241 68.2264 36.3595 67.5855 36.7584C65.4684 38.0748 63.1707 38.949 60.7688 39.5733C60.5239 39.6375 60.279 39.7017 60.0203 39.7693C60.154 40.0538 60.4354 40.0572 60.6542 40.1457C63.0283 41.1048 65.4077 42.0483 67.7818 43.0057C69.9962 43.899 70.9913 45.3732 70.9965 47.7459C71 49.4994 70.993 51.2546 71 53.0081C71.0017 53.6498 70.8194 54.1493 70.116 54.295C69.7079 54.38 69.8068 54.6992 69.8068 54.9576C69.8016 57.7725 69.8068 60.5892 69.8016 63.4042C69.8016 63.6799 69.8034 63.9644 69.7443 64.2297C69.6349 64.7171 69.2858 64.9703 68.7943 64.9825C68.3028 64.9946 67.9364 64.7639 67.8113 64.2783C67.7366 63.9921 67.728 63.6851 67.7262 63.3868C67.721 60.617 67.7089 57.8471 67.7332 55.079C67.7384 54.5326 67.6307 54.2534 67.0211 54.328C66.3855 54.406 65.5344 54.0505 65.1628 54.4823C64.8484 54.8483 65.0516 55.6687 65.0499 56.2879C65.0429 58.7577 65.0429 61.2275 65.0499 63.6955C65.0499 64.2159 64.9492 64.6686 64.4333 64.9062C63.8932 65.1542 63.2923 64.8923 63.0648 64.3355C62.9571 64.0702 62.9658 63.7944 62.9658 63.5169C62.9658 59.4775 62.9658 55.4397 62.9658 51.4003C62.9658 51.1245 62.9554 50.847 63.0596 50.5799C63.2419 50.1134 63.5962 49.8827 64.079 49.9104C64.5653 49.9399 64.8849 50.2209 65.0134 50.6996C65.0308 50.7655 65.0291 50.8366 65.0395 50.906C65.1055 51.3327 64.8415 51.8963 65.1697 52.1617C65.5049 52.4323 66.0624 52.2398 66.5209 52.2502C67.0975 52.264 67.6776 52.2259 68.2542 52.2623C68.7422 52.2918 68.9489 52.1825 68.9315 51.6275C68.8881 50.3128 68.9107 48.9964 68.9194 47.6817C68.9263 46.3532 68.3271 45.4478 67.0836 44.9622C66.0312 44.5511 64.9683 44.1609 63.9401 43.6926C63.4365 43.4619 63.2801 43.6163 63.1047 44.0655C62.0019 46.8735 60.0533 48.8923 57.238 49.9729C53.2157 51.5182 49.5407 50.8175 46.2548 48.0459C46.0829 47.902 45.9665 47.6817 45.6747 47.6297C45.1346 49.2722 44.2749 50.7204 42.9741 51.8842C42.7171 52.1149 42.4739 52.4097 42.1665 52.5294C41.1331 52.9352 41.2912 53.7799 41.2999 54.5986C41.3033 54.9472 41.5413 55.0044 41.7792 55.0842C42.8508 55.4432 43.9258 55.7901 44.9957 56.1561C47.2777 56.9383 48.3962 58.4888 48.4101 60.8754C48.4153 61.8449 48.4205 62.8145 48.4066 63.784C48.3962 64.5523 48.0054 64.9929 47.3733 64.9894C46.7515 64.9859 46.3503 64.5367 46.3364 63.7684C46.3173 62.7989 46.3399 61.8293 46.3295 60.8598C46.3121 59.2728 45.2388 58.0882 43.6862 57.8939C43.4048 57.8592 43.3249 58.0396 43.1999 58.1923C39.6343 62.5491 33.7659 62.5491 30.1795 58.1853C29.978 57.939 29.8217 57.8627 29.4882 57.965C27.6299 58.5339 27.0377 59.2953 27.0377 61.2067C27.0377 62.06 27.0481 62.9151 27.0342 63.7684C27.0203 64.5315 26.6209 64.9877 26.0009 64.9911C25.3774 64.9946 24.971 64.5385 24.9623 63.7805C24.9501 62.7659 24.9501 61.7495 24.9623 60.7349C24.9849 58.5652 26.1346 56.9487 28.1892 56.2185C29.2764 55.8317 30.3688 55.4623 31.4733 55.1293C31.918 54.994 32.0621 54.7928 32.102 54.3158C32.1715 53.4677 31.8797 52.9821 31.1677 52.4687C28.8057 50.7672 27.5518 48.3894 27.3729 45.4808C27.3434 44.9968 27.2148 44.7974 26.7147 44.7679C26.0009 44.7245 25.3461 44.428 24.8824 43.8938C24.509 43.4619 24.219 43.5226 23.7674 43.7325C19.4498 45.734 14.4306 44.9465 10.938 41.7292C9.34197 40.2584 8.19919 38.4911 7.6278 36.3907C7.49233 35.8947 7.28045 35.8669 6.86189 36.0057C5.98657 36.2953 5.09736 36.5451 4.21509 36.8174C2.71801 37.2787 2.08757 38.106 2.0841 39.6531C2.07715 42.8375 2.09104 46.0236 2.07194 49.208C2.06847 49.6919 2.14662 49.9018 2.70238 49.8827C3.97194 49.8376 5.24498 49.848 6.51454 49.8792C7.00778 49.8914 7.14845 49.7283 7.13109 49.2514C7.09809 48.3061 7.10677 47.3591 7.12588 46.4139C7.14151 45.6472 6.92962 44.9656 6.49196 44.3378C6.00394 43.6371 5.53154 42.926 5.06783 42.2096C4.63364 41.5384 4.71006 40.9071 5.24324 40.5706C5.76948 40.2376 6.33913 40.3937 6.77853 41.032C7.35513 41.868 7.90915 42.7178 8.46491 43.5677C8.99983 44.3846 9.20476 45.2917 9.20303 46.2612C9.19782 52.0542 9.20129 57.8471 9.19955 63.64C9.19955 63.8013 9.19087 63.9644 9.16656 64.1222C9.08493 64.6529 8.75842 64.9495 8.23392 64.9755C7.68164 65.0033 7.29781 64.7379 7.18666 64.1777C7.13282 63.9089 7.1224 63.6279 7.1224 63.3539C7.11893 59.8001 7.1033 56.2462 7.13456 52.6924C7.13977 52.0663 6.95047 51.8981 6.35129 51.9345C5.54544 51.9848 4.73264 51.9779 3.92679 51.9345C3.39882 51.9067 3.26335 52.0906 3.26509 52.6005C3.28419 56.1769 3.27724 59.755 3.27377 63.3313C3.27377 63.6071 3.26335 63.8863 3.21472 64.1569C3.11573 64.7206 2.73885 64.9964 2.18483 64.9738C1.62733 64.9513 1.2904 64.6339 1.22614 64.0702C1.19662 63.8187 1.19662 63.5637 1.19662 63.3105C1.19488 59.7792 1.18967 56.248 1.20183 52.7167C1.20183 52.271 1.20357 51.9137 0.623492 51.8374C0.314351 51.7975 0.192779 51.4471 0.00173675 51.2199C0.00173675 46.9723 0.00173675 42.7265 0.00173675 38.4789L0 38.4859ZM41.0706 25.0164C41.8504 24.6331 42.4426 24.3348 43.0418 24.0486C44.1603 23.5127 44.8341 23.9289 44.848 25.1795C44.8619 26.4248 44.8619 27.6718 44.8446 28.9171C44.8394 29.2883 44.9349 29.5692 45.2006 29.8416C46.1923 30.8597 46.9547 32.0373 47.4896 33.3537C47.6268 33.6902 47.8335 33.9192 48.1427 34.1151C49.6415 35.0639 51.2723 35.5131 53.042 35.6241C58.7629 35.9796 63.8272 30.3931 62.8685 24.7528C62.641 23.4138 61.9741 22.4131 60.7375 21.7939C59.5461 21.1972 58.2609 20.9215 56.9757 20.6544C54.4227 20.1254 51.8506 19.6658 49.5303 18.384C49.1239 18.1585 49.1222 18.5089 49.0215 18.6997C47.962 20.7133 46.1732 21.7176 44.063 22.2518C43.5021 22.394 43.0401 22.1373 42.8629 21.5736C42.691 21.0238 42.8768 20.5642 43.4309 20.3231C43.7886 20.167 44.1707 20.0647 44.5337 19.919C46.1298 19.2807 47.2812 18.2626 47.5539 16.4571C47.6963 15.5101 48.5039 15.1806 49.2959 15.772C51.0239 17.0641 53.0177 17.6712 55.0775 18.1343C56.9879 18.5644 58.9383 18.8384 60.7827 19.5339C62.9918 20.3682 64.5514 21.8199 64.8832 24.2325C65.5431 29.0403 63.8255 32.8889 59.8744 35.6692C59.1276 36.1947 59.0859 36.7324 59.1015 37.4487C59.1102 37.7956 59.27 37.8129 59.5444 37.747C61.7292 37.2197 63.8255 36.4705 65.8175 35.4177C66.3629 35.128 66.4688 34.7829 66.3941 34.2053C65.8766 30.1537 65.5362 26.0883 65.4407 22.0037C65.4059 20.5278 65.4407 19.0396 65.2687 17.5793C64.614 12.0309 60.5778 7.9047 55.0323 7.01668C49.1604 6.0749 43.2224 9.95478 41.7358 15.7096C40.956 18.7222 41.4423 21.8147 41.0706 25.0182V25.0164ZM19.7746 2.11177C18.3661 2.11177 16.9559 2.09789 15.5474 2.11524C11.6918 2.16033 8.69242 4.62146 8.12798 8.33657C7.84663 10.1837 8.0724 12.069 8.03072 13.9353C8.02378 14.2266 8.17661 14.2821 8.41975 14.2752C8.67332 14.2665 8.93209 14.2457 9.18045 14.2804C9.65285 14.3446 9.88383 14.1677 10.0037 13.6976C10.1704 13.0524 10.45 12.4367 10.6237 11.7933C10.8199 11.0613 11.2559 10.7318 12.0131 10.7075C13.3052 10.6676 14.5991 10.6034 15.8878 10.5029C19.1407 10.2496 22.3606 9.8299 25.3982 8.52736C26.112 8.2221 26.6608 8.40595 26.9231 8.98524C27.1836 9.55933 26.9265 10.0918 26.2301 10.4109C25.0526 10.9521 23.823 11.3388 22.5621 11.632C19.4672 12.35 16.322 12.6431 13.1559 12.742C12.6696 12.7576 12.4073 12.8929 12.2805 13.3889C12.1086 14.0567 11.8377 14.6984 11.6397 15.3592C11.433 16.0495 11.0162 16.3964 10.2729 16.3582C9.67369 16.327 9.07103 16.3426 8.47186 16.3548C7.51491 16.3738 6.9661 16.7866 6.86884 17.5463C6.77332 18.2869 7.2214 18.8194 8.16445 19.0275C8.62122 19.1281 9.02067 19.2877 9.13877 19.7785C9.21866 20.1115 9.23603 20.4636 9.2586 20.8087C9.74489 27.8019 17.5533 31.9679 23.6198 28.4384C26.6296 26.6884 28.2499 24.0295 28.4948 20.5451C28.5747 19.3987 28.7154 19.2339 29.6202 19.0153C30.4643 18.8124 30.9263 18.3042 30.8811 17.6244C30.8325 16.8716 30.2541 16.3912 29.3406 16.3513C28.9724 16.3357 28.599 16.3617 28.2326 16.3218C27.6959 16.2646 27.3989 15.9038 27.3555 15.4008C27.3121 14.8927 27.5709 14.5232 28.078 14.3532C28.4167 14.2388 28.7658 14.2527 29.1079 14.2787C29.5438 14.3116 29.7123 14.1867 29.7053 13.7133C29.6793 11.9372 29.6949 10.1594 29.6932 8.3834C29.6932 7.0479 29.1826 5.9691 28.0745 5.19035C27.7133 4.93712 27.4163 4.64574 27.2722 4.18959C26.7876 2.66504 26.0217 2.11697 24.4169 2.11003C22.8695 2.10136 21.3203 2.11003 19.7729 2.11003L19.7746 2.11177ZM44.6813 32.5195C44.1325 33.1803 43.5385 32.9652 42.922 32.6548C41.0272 31.6991 39.1202 30.766 37.2307 29.7982C36.8382 29.597 36.529 29.6005 36.1383 29.7982C34.207 30.7833 32.2601 31.739 30.3201 32.7085C29.846 32.9444 29.3719 33.1265 28.9099 32.7068C28.6338 32.4553 28.5643 32.7016 28.4618 32.8681C27.6039 34.2747 27.1575 35.8062 27.0481 37.4469C27.0221 37.8268 27.095 37.9777 27.5222 37.9534C31.456 37.7314 35.3341 37.2197 39.0786 35.9241C40.1501 35.553 41.1661 35.0673 42.1891 34.5852C42.7448 34.3233 43.2954 34.5366 43.5385 35.0396C43.8043 35.5877 43.6219 36.0247 43.1617 36.3681C43.0158 36.4774 42.8438 36.5572 42.6806 36.6404C39.4745 38.2777 36.0219 39.0721 32.4893 39.5837C30.7509 39.837 29.0002 39.9688 27.2461 40.0451C26.4698 40.0781 25.8584 40.7076 25.8584 41.4066C25.8584 42.1524 26.409 42.697 27.2409 42.7612C27.517 42.782 27.7949 42.7647 28.0728 42.7699C29.0471 42.7837 29.3927 43.1324 29.4031 44.1158C29.4066 44.369 29.4031 44.6239 29.4031 44.8772C29.4292 47.2342 30.3549 49.156 32.1837 50.6528C36.371 54.08 42.9185 51.6327 43.8355 46.3011C43.938 45.7045 43.9588 45.1096 43.9606 44.5095C43.9606 43.0057 44.1916 42.7716 45.6678 42.7699C45.9908 42.7699 46.3139 42.7768 46.6265 42.6641C47.507 42.3432 47.8873 41.1534 47.1683 40.5984C46.326 39.9497 46.3034 39.164 46.3243 38.2725C46.3729 36.2138 45.8745 34.3042 44.6796 32.5195H44.6813ZM48.398 36.6543C48.398 37.0029 48.4049 37.2336 48.398 37.4626C48.3719 38.2482 48.5195 38.9143 49.018 39.6184C50.3796 41.5436 49.2715 44.1782 46.9738 44.7402C46.7637 44.7922 46.5171 44.7506 46.2982 44.9743C48.2816 47.6123 50.8537 48.9097 54.1865 48.6218C57.3335 48.3512 60.2669 46.0774 61.2829 43.1167C61.4079 42.7543 61.2985 42.6328 60.9929 42.5184C60.3885 42.2929 59.7858 42.0588 59.1936 41.8021C57.9205 41.2488 57.1946 40.2792 57.0591 38.8935C57.0209 38.5049 57.0035 38.1078 57.0348 37.7193C57.0765 37.2128 56.8872 37.1434 56.4443 37.2787C55.2164 37.6516 53.959 37.7418 52.679 37.6863C51.2098 37.6221 49.8238 37.2388 48.4014 36.6578L48.398 36.6543ZM23.7309 30.8163C23.6198 30.8267 23.5468 30.8163 23.4878 30.8423C20.4624 32.0581 17.4317 32.1154 14.3976 30.8839C14.0381 30.7382 13.9617 30.8666 13.9721 31.2048C13.9947 31.987 13.9652 32.7727 14.0138 33.5549C14.1319 35.442 15.5039 37.1608 17.3241 37.7522C19.205 38.3627 21.2838 37.7643 22.5482 36.3352C23.9914 34.7031 23.7587 32.7588 23.7309 30.818V30.8163ZM24.9536 36.552C23.3315 38.9542 21.0129 40.2341 18.7065 40.085C15.893 39.9011 13.8384 38.5899 12.548 36.0629C12.2927 35.5616 12.3917 34.7205 11.8707 34.5956C11.3653 34.4742 10.7453 34.9147 10.1582 35.0205C9.48438 35.1419 9.44965 35.4489 9.65111 36.0213C10.259 37.7574 11.2472 39.2178 12.6175 40.4457C15.4553 42.9884 20.148 43.5018 23.4218 41.6113C23.6719 41.4673 23.7987 41.3008 23.8212 41.0233C23.8838 40.2827 24.2085 39.6601 24.7035 39.1172C24.8268 38.9819 24.9571 38.8588 24.9553 38.6472C24.9466 37.9881 24.9519 37.329 24.9519 36.5537L24.9536 36.552ZM36.6957 59.3873C38.3856 59.337 39.8636 58.7403 41.0706 57.5054C41.2842 57.2869 41.4093 57.1412 40.9786 57.0042C39.7767 56.6191 39.1671 55.7849 39.2279 54.5066C39.2453 54.1285 39.1828 53.9742 38.733 54.0834C37.3661 54.4112 35.9854 54.4095 34.6186 54.0782C34.2035 53.9776 34.1375 54.1216 34.1531 54.4719C34.207 55.7363 33.6425 56.6035 32.4303 56.9886C31.9666 57.136 32.0864 57.2921 32.3261 57.5314C33.5262 58.7299 34.9798 59.3318 36.6975 59.3873H36.6957ZM25.8359 33.0311C26.5879 31.7841 27.3711 30.6324 28.3559 29.6213C28.4306 29.5432 28.5105 29.427 28.5122 29.3282C28.5243 28.5373 28.5191 27.7481 28.5191 26.7543C27.6942 27.8175 26.9335 28.6413 26.0338 29.3264C25.8966 29.4305 25.8324 29.5658 25.8341 29.7427C25.8376 30.8388 25.8341 31.935 25.8341 33.0311H25.8359ZM34.3546 28.376C33.1337 27.7672 32.0465 27.233 30.9645 26.6815C30.6553 26.5236 30.6102 26.6676 30.6102 26.9277C30.6119 27.8973 30.6102 28.8651 30.6137 29.8346C30.6137 30.0219 30.6067 30.2457 30.9106 30.0948C32.0152 29.545 33.1198 28.9917 34.3546 28.376ZM39.0213 28.376C40.2283 28.9795 41.2756 29.5051 42.3245 30.0289C42.5434 30.1381 42.7674 30.2665 42.7674 29.8433C42.7657 28.8529 42.7674 27.8626 42.7657 26.8722C42.7657 26.6051 42.6476 26.5618 42.4183 26.678C41.3346 27.2243 40.2491 27.7637 39.0213 28.3742V28.376Z" fill="#EAE6DB"/>
<path d="M53.3286 31.7737C52.0573 31.7442 51.0135 31.2221 50.1955 30.2578C49.8186 29.8121 49.8065 29.3299 50.199 28.879C50.5758 28.4453 51.1316 28.4228 51.6248 28.8044C51.7707 28.9171 51.8923 29.0593 52.0295 29.1807C52.8145 29.871 53.8201 29.8745 54.6051 29.1894C54.744 29.068 54.8656 28.9258 55.0115 28.813C55.5099 28.4245 56.0588 28.4401 56.4391 28.8668C56.8351 29.3126 56.8316 29.7999 56.4582 30.2457C55.6471 31.2169 54.6016 31.7373 53.3286 31.772V31.7737Z" fill="#EAE6DB"/>
<path d="M47.5504 24.2151C47.5417 23.1051 47.8856 22.5761 48.5959 22.5952C49.282 22.6143 49.6224 23.1415 49.6189 24.196C49.6189 24.4493 49.6206 24.706 49.5755 24.9522C49.4678 25.5298 49.0909 25.868 48.5126 25.8299C47.9429 25.7917 47.5904 25.4361 47.5539 24.836C47.5417 24.6296 47.5522 24.4215 47.5522 24.2134L47.5504 24.2151Z" fill="#EAE6DB"/>
<path d="M59.0946 24.2377C59.105 25.346 58.7559 25.8767 58.0456 25.8507C57.3596 25.8264 57.0226 25.3026 57.0261 24.2446C57.0261 23.9914 57.0296 23.7347 57.0747 23.4884C57.179 22.9039 57.5645 22.5778 58.1411 22.616C58.7108 22.6541 59.0616 23.0132 59.0928 23.6133C59.1033 23.8197 59.0946 24.0278 59.0946 24.2359V24.2377Z" fill="#EAE6DB"/>
<path d="M18.8628 25.8507C17.6263 25.7969 16.5894 25.313 15.7749 24.3782C15.3546 23.896 15.372 23.2803 15.7922 22.89C16.2056 22.505 16.7405 22.5171 17.2251 22.923C18.5954 24.0694 19.1199 24.0694 20.5006 22.923C20.9886 22.5189 21.5253 22.5067 21.9351 22.89C22.3589 23.2855 22.3745 23.889 21.9508 24.3782C21.138 25.3147 20.0994 25.7969 18.8611 25.8507H18.8628Z" fill="#EAE6DB"/>
<path d="M22.5864 18.2904C22.5864 18.1984 22.5864 18.1065 22.5864 18.0129C22.5986 17.1404 22.9754 16.66 23.6354 16.6722C24.2641 16.6843 24.6479 17.1665 24.6636 17.9816C24.6705 18.3042 24.6844 18.632 24.641 18.9494C24.5594 19.5443 24.0904 19.9433 23.5642 19.912C23.0189 19.8808 22.635 19.4628 22.5934 18.8436C22.5812 18.6598 22.5916 18.4742 22.5916 18.2904H22.5864Z" fill="#EAE6DB"/>
<path d="M15.1375 18.2817C15.1375 18.4204 15.141 18.5592 15.1375 18.6962C15.1132 19.4455 14.7085 19.9207 14.1024 19.9138C13.5223 19.9086 13.1038 19.4542 13.0656 18.75C13.0447 18.3823 13.0395 18.0077 13.0847 17.6452C13.1628 17.0329 13.6074 16.6548 14.151 16.6774C14.7103 16.7016 15.0837 17.0971 15.1288 17.7267C15.1427 17.9105 15.1305 18.0961 15.1305 18.28C15.1323 18.28 15.134 18.28 15.1358 18.28L15.1375 18.2817Z" fill="#EAE6DB"/>
<path d="M36.7044 49.5757C35.4244 49.5479 34.3824 49.0242 33.5627 48.065C33.1632 47.5967 33.1962 47.0296 33.6026 46.6341C33.9934 46.2526 34.5613 46.2595 35.0372 46.6497C36.47 47.8257 36.9372 47.8274 38.3144 46.6671C38.7816 46.2734 39.3617 46.2508 39.7542 46.6116C40.1762 47.0001 40.2022 47.6193 39.7837 48.0997C38.9709 49.0328 37.9479 49.541 36.7044 49.5774V49.5757Z" fill="#EAE6DB"/>
<path d="M34.1531 42.5929C34.1653 43.1636 33.752 43.6076 33.1875 43.6301C32.5883 43.6527 32.1298 43.2104 32.1316 42.6138C32.1333 42.0483 32.5675 41.6113 33.1319 41.6043C33.6946 41.5991 34.141 42.0293 34.1531 42.5929Z" fill="#EAE6DB"/>
<path d="M40.2335 43.6301C39.6604 43.6388 39.2262 43.2277 39.2053 42.6571C39.1845 42.0622 39.6395 41.5957 40.23 41.6061C40.7945 41.6147 41.2252 42.0535 41.2252 42.6207C41.2252 43.1913 40.8032 43.6215 40.2335 43.6319V43.6301Z" fill="#EAE6DB"/>
</svg>
