<svg width="20" height="30" viewBox="0 0 20 30" fill="none" xmlns="http://www.w3.org/2000/svg">
<path d="M20 10.3145C20 12.5755 19.3538 14.6804 18.4926 16.7195C16.4615 21.5316 13.5379 25.7543 10.3081 29.7693C10.1169 30.0066 9.97436 30.1201 9.73188 29.8158C6.18085 25.3441 2.91105 20.6932 0.949917 15.2092C0.25246 13.259 -0.172514 11.2534 0.0674713 9.14597C0.693683 3.63093 5.29465 -0.31318 10.7281 0.01958C15.8915 0.335573 19.9925 4.88974 20 10.3132V10.3145ZM14.2116 9.78182C14.2191 7.38801 12.3605 5.43531 10.0506 5.41338C7.717 5.39146 5.80212 7.339 5.79462 9.74442C5.78587 12.146 7.69075 14.1193 10.0156 14.1167C12.3167 14.1141 14.2041 12.1653 14.2116 9.78182Z" fill="white"/>
</svg>
