<svg width="206" height="53" viewBox="0 0 206 53" fill="none" xmlns="http://www.w3.org/2000/svg">
<path d="M145.934 37.0179C138.907 37.0179 133.189 31.286 133.189 24.241C133.189 17.196 138.907 11.4641 145.934 11.4641C152.961 11.4641 158.679 17.196 158.679 24.241C158.679 31.286 152.961 37.0179 145.934 37.0179ZM145.934 16.6511C141.761 16.6511 138.366 20.0545 138.366 24.238C138.366 28.4216 141.761 31.825 145.934 31.825C150.107 31.825 153.502 28.4216 153.502 24.238C153.502 20.0545 150.107 16.6511 145.934 16.6511Z" fill="#C0A49E"/>
<path d="M173.141 11.4611C170.31 11.4611 167.691 12.3931 165.573 13.9653V4.96691H160.396V24.6281H160.405C160.61 31.4945 166.241 37.0179 173.141 37.0179C180.041 37.0179 185.886 31.286 185.886 24.241C185.886 17.196 180.168 11.4641 173.141 11.4641V11.4611ZM173.141 31.825C168.968 31.825 165.573 28.4216 165.573 24.238C165.573 20.0545 168.968 16.6511 173.141 16.6511C177.314 16.6511 180.709 20.0545 180.709 24.238C180.709 28.4216 177.314 31.825 173.141 31.825Z" fill="#C0A49E"/>
<path d="M60.3511 37.1877C50.1248 37.1877 41.8024 28.8474 41.8024 18.5925C41.8024 8.33757 50.1218 0.000247953 60.3511 0.000247953C63.2857 0.000247953 66.0955 0.667233 68.7003 1.98632L66.3776 6.59864C64.5005 5.64878 62.4719 5.16641 60.3511 5.16641C52.9673 5.16641 46.9586 11.1901 46.9586 18.5925C46.9586 25.9948 52.9673 32.0185 60.3511 32.0185C66.8529 32.0185 72.2913 27.3466 73.4942 21.177H64.3728V16.0079H78.8999V18.5925C78.8999 28.8444 70.5805 37.1877 60.3511 37.1877Z" fill="#4A4E69"/>
<path d="M130.893 36.2527H125.737V24.104C125.737 20.1527 122.529 16.9369 118.588 16.9369C114.646 16.9369 111.438 20.1527 111.438 24.104V36.2527H106.282V24.104C106.282 17.3032 111.801 11.7678 118.588 11.7678C125.374 11.7678 130.893 17.3002 130.893 24.104V36.2527Z" fill="#4A4E69"/>
<path d="M92.735 35.4249C86.7858 35.4249 81.9444 30.5714 81.9444 24.6072V13.599H87.1006V24.6072C87.1006 27.7218 89.6282 30.2558 92.735 30.2558C95.8419 30.2558 98.3695 27.7218 98.3695 24.6072V13.599H103.526V24.6072C103.526 30.5714 98.6843 35.4249 92.735 35.4249Z" fill="#4A4E69"/>
<path d="M103.523 29.8866V36.741C103.523 38.0363 103.294 39.2779 102.878 40.4273C101.372 44.5841 97.3923 47.5587 92.7321 47.5587V42.3896C94.434 42.3896 95.9636 41.6273 96.9943 40.4273C97.8467 39.4387 98.3665 38.1494 98.3665 36.741V35.2343C100.594 34.0433 102.409 32.1644 103.523 29.8866Z" fill="#4A4E69"/>
<path d="M20.9843 17.6664L39.343 1.37888C37.6441 0.50942 35.7224 0.0121584 33.6878 0.000247953C26.7019 -0.0414386 20.9843 5.77384 20.9843 12.7772V17.6664Z" fill="#C0A49E"/>
<path d="M18.3587 17.6664L0 1.37886C1.69894 0.509395 3.62065 0.0121332 5.6582 0.000222737C12.6441 -0.0414638 18.3617 5.77381 18.3617 12.7772V17.6664H18.3587Z" fill="#C0A49E"/>
<path d="M79.6752 6.46167C79.6752 6.46167 78.897 7.3222 77.2129 7.3222C74.9347 7.3222 73.5061 5.69047 73.5061 3.6776C73.5061 1.66473 74.9347 0.0359793 77.2129 0.0359793C78.9088 0.0359793 79.6752 0.89651 79.6752 0.89651L78.8732 1.98036C78.8732 1.98036 78.1544 1.38782 77.2366 1.38782C75.9001 1.38782 74.9585 2.35554 74.9585 3.68058C74.9585 5.00562 75.9001 5.98525 77.2366 5.98525C78.294 5.98525 78.8732 5.38079 78.8732 5.38079L79.6752 6.46465V6.46167Z" fill="#4A4E69"/>
<path d="M88.3392 4.27312H85.0393V5.93761H89.0461V7.17332H83.6344V0.18486H89.0461V1.42057H85.0393V3.12079H88.3392V4.27312Z" fill="#4A4E69"/>
<path d="M99.6288 7.17332H99.2932L94.6241 2.91235V7.17332H93.2192V0.18486H93.5667L98.2358 4.35352V0.19677H99.6288V7.17332Z" fill="#4A4E69"/>
<path d="M109.499 0.18486V1.42057H107.233V7.17332H105.828V1.42057H103.549V0.18486H109.499Z" fill="#4A4E69"/>
<path d="M113.413 0.18486H116.562C118.326 0.18486 119.419 1.0573 119.419 2.58482C119.419 3.62103 118.908 4.33268 118.106 4.71679V4.821L119.767 7.03337V7.17332H118.175L116.63 5.04135H114.818V7.17332H113.413V0.18486ZM116.514 1.42057H114.818V3.85328H116.55C117.432 3.85328 117.967 3.45726 117.967 2.64139C117.967 1.82552 117.42 1.41759 116.514 1.41759V1.42057Z" fill="#4A4E69"/>
<path d="M123.295 3.68058C123.295 1.66473 124.7 0.0359793 126.978 0.0359793C129.256 0.0359793 130.673 1.66771 130.673 3.68058C130.673 5.69344 129.268 7.32518 126.978 7.32518C124.688 7.32518 123.295 5.69344 123.295 3.68058ZM129.233 3.68058C129.233 2.35256 128.291 1.38782 126.978 1.38782C125.665 1.38782 124.748 2.35554 124.748 3.68058C124.748 5.00562 125.677 5.97334 126.978 5.97334C128.279 5.97334 129.233 5.00562 129.233 3.68058Z" fill="#4A4E69"/>
<path d="M152.356 44.5215H154.138V44.7746C154.138 45.8734 153.505 46.585 152.448 46.585C151.298 46.585 150.588 45.7513 150.588 44.6972C150.588 43.6431 151.322 42.8034 152.471 42.8034C153.392 42.8034 153.808 43.2799 153.808 43.2799L153.561 43.5985C153.561 43.5985 153.175 43.1995 152.471 43.1995C151.568 43.1995 151.016 43.8754 151.016 44.6972C151.016 45.519 151.545 46.186 152.448 46.186C153.193 46.186 153.707 45.6977 153.719 44.9563V44.9146H152.359V44.5215H152.356Z" fill="#4A4E69"/>
<path d="M155.938 46.4987H155.516V42.8779H155.938V46.4987Z" fill="#4A4E69"/>
<path d="M160.731 46.4987H160.604L157.999 43.7652V46.4987H157.577V42.8779H157.705L160.31 45.5994V42.8779H160.731V46.4987Z" fill="#4A4E69"/>
<path d="M164.753 44.9116H162.79V46.1056H165.017V46.4987H162.368V42.8779H165.017V43.2709H162.79V44.5185H164.753V44.9116Z" fill="#4A4E69"/>
<path d="M169.185 46.1205C169.185 46.1205 168.781 46.585 167.934 46.585C166.814 46.585 166.051 45.7513 166.051 44.6972C166.051 43.6431 166.814 42.8034 167.934 42.8034C168.784 42.8034 169.185 43.2679 169.185 43.2679L168.944 43.5925C168.944 43.5925 168.564 43.1995 167.94 43.1995C167.073 43.1995 166.479 43.8754 166.479 44.6972C166.479 45.519 167.076 46.186 167.94 46.186C168.567 46.186 168.944 45.793 168.944 45.793L169.185 46.1175V46.1205Z" fill="#4A4E69"/>
<path d="M170.141 44.6942C170.141 43.6253 170.869 42.8005 172.006 42.8005C173.144 42.8005 173.877 43.6282 173.877 44.6942C173.877 45.7602 173.15 46.582 172.006 46.582C170.863 46.582 170.141 45.7483 170.141 44.6942ZM173.453 44.6942C173.453 43.8724 172.9 43.1965 172.009 43.1965C171.118 43.1965 170.572 43.8724 170.572 44.6942C170.572 45.516 171.124 46.1771 172.009 46.1771C172.894 46.1771 173.453 45.5071 173.453 44.6942Z" fill="#4A4E69"/>
<path d="M176.928 46.4987H175.262V42.8779H176.851C177.644 42.8779 178.146 43.2084 178.146 43.8545C178.146 44.2535 177.923 44.5185 177.578 44.6317V44.6674C177.976 44.7746 178.264 45.0605 178.264 45.4952C178.264 46.183 177.712 46.4957 176.928 46.4957V46.4987ZM176.842 43.2709H175.68V44.4709H176.842C177.37 44.4709 177.709 44.2416 177.709 43.8724C177.709 43.4377 177.379 43.2679 176.842 43.2679V43.2709ZM175.68 46.1056H176.94C177.433 46.1056 177.831 45.9061 177.831 45.4714C177.831 45.0903 177.462 44.8907 176.993 44.8729H175.68V46.1056Z" fill="#4A4E69"/>
<path d="M179.666 45.8346C179.666 45.8346 180.041 46.183 180.756 46.183C181.425 46.183 181.713 45.9299 181.713 45.5607C181.713 45.2242 181.49 45.0545 180.703 44.8312C179.824 44.5781 179.444 44.319 179.444 43.7682C179.444 43.1518 179.954 42.7975 180.78 42.7975C181.659 42.7975 182.057 43.1429 182.057 43.1429L181.829 43.4913C181.829 43.4913 181.46 43.1965 180.78 43.1965C180.263 43.1965 179.871 43.396 179.871 43.7682C179.871 44.063 180.106 44.2148 180.887 44.4322C181.849 44.6972 182.138 45.0158 182.138 45.5548C182.138 46.1413 181.722 46.5791 180.759 46.5791C179.797 46.5791 179.435 46.1503 179.435 46.1503L179.663 45.8317L179.666 45.8346Z" fill="#4A4E69"/>
<path d="M186.037 42.8779V43.2709H184.766V46.4987H184.344V43.2709H183.079V42.8779H186.037Z" fill="#4A4E69"/>
<path d="M189.631 44.9116H187.668V46.1056H189.896V46.4987H187.246V42.8779H189.896V43.2709H187.668V44.5185H189.631V44.9116Z" fill="#4A4E69"/>
<path d="M193.784 42.8779V43.2709H192.512V46.4987H192.091V43.2709H190.825V42.8779H193.784Z" fill="#4A4E69"/>
<path d="M194.995 42.8779H196.469C197.372 42.8779 197.912 43.3007 197.912 44.0838C197.912 44.6823 197.577 45.0664 197.063 45.2183V45.2361L198.013 46.3944V46.4957H197.556L196.564 45.2957H195.414V46.4957H194.992V42.8749L194.995 42.8779ZM196.463 43.2709H195.414V44.9056H196.516C197.075 44.9056 197.479 44.6525 197.479 44.0987C197.479 43.5449 197.075 43.2709 196.463 43.2709Z" fill="#4A4E69"/>
<path d="M200.594 42.8779H200.689L202.471 46.4987H201.99L201.672 45.8704H199.62L199.302 46.4987H198.827L200.597 42.8779H200.594ZM200.618 43.7354L199.855 45.4118L199.825 45.4654H201.467L201.438 45.4118L200.669 43.7354H200.618Z" fill="#4A4E69"/>
<path d="M203.529 45.8346C203.529 45.8346 203.903 46.183 204.619 46.183C205.287 46.183 205.575 45.9299 205.575 45.5607C205.575 45.2242 205.352 45.0545 204.565 44.8312C203.686 44.5781 203.306 44.319 203.306 43.7682C203.306 43.1518 203.817 42.7975 204.643 42.7975C205.522 42.7975 205.92 43.1429 205.92 43.1429L205.691 43.4913C205.691 43.4913 205.323 43.1965 204.643 43.1965C204.126 43.1965 203.734 43.396 203.734 43.7682C203.734 44.063 203.968 44.2148 204.75 44.4322C205.712 44.6972 206 45.0158 206 45.5548C206 46.1413 205.584 46.5791 204.622 46.5791C203.66 46.5791 203.297 46.1503 203.297 46.1503L203.526 45.8317L203.529 45.8346Z" fill="#4A4E69"/>
<path d="M164.29 52.4688C164.29 52.4688 163.886 52.9333 163.039 52.9333C161.92 52.9333 161.156 52.0995 161.156 51.0455C161.156 49.9914 161.92 49.1517 163.039 49.1517C163.889 49.1517 164.29 49.6162 164.29 49.6162L164.049 49.9408C164.049 49.9408 163.669 49.5477 163.045 49.5477C162.178 49.5477 161.584 50.2237 161.584 51.0455C161.584 51.8673 162.181 52.5343 163.045 52.5343C163.672 52.5343 164.049 52.1412 164.049 52.1412L164.29 52.4658V52.4688Z" fill="#4A4E69"/>
<path d="M167.955 51.2599H165.992V52.4539H168.219V52.8469H165.57V49.2262H168.219V49.6192H165.992V50.8668H167.955V51.2599Z" fill="#4A4E69"/>
<path d="M169.577 49.2262H171.05C171.953 49.2262 172.493 49.649 172.493 50.4321C172.493 51.0306 172.158 51.4147 171.644 51.5666V51.5844L172.594 52.7427V52.844H172.137L171.145 51.644H169.995V52.844H169.574V49.2232L169.577 49.2262ZM171.044 49.6192H169.995V51.2539H171.097C171.656 51.2539 172.06 51.0008 172.06 50.444C172.06 49.8872 171.656 49.6162 171.044 49.6162V49.6192Z" fill="#4A4E69"/>
<path d="M173.465 49.2262H176.42V49.6192H175.149V52.8469H174.727V49.6192H173.465V49.2262Z" fill="#4A4E69"/>
<path d="M178.054 52.8469H177.632V49.2262H178.054V52.8469Z" fill="#4A4E69"/>
<path d="M179.69 49.2262H182.34V49.6192H180.112V50.8668H182.075V51.2599H180.112V52.8469H179.69V49.2262Z" fill="#4A4E69"/>
<path d="M184.062 52.8469H183.64V49.2262H184.062V52.8469Z" fill="#4A4E69"/>
<path d="M188.577 52.4688C188.577 52.4688 188.173 52.9333 187.326 52.9333C186.207 52.9333 185.443 52.0995 185.443 51.0455C185.443 49.9914 186.207 49.1517 187.326 49.1517C188.176 49.1517 188.577 49.6162 188.577 49.6162L188.336 49.9408C188.336 49.9408 187.956 49.5477 187.332 49.5477C186.465 49.5477 185.871 50.2237 185.871 51.0455C185.871 51.8673 186.468 52.5343 187.332 52.5343C187.959 52.5343 188.336 52.1412 188.336 52.1412L188.577 52.4658V52.4688Z" fill="#4A4E69"/>
<path d="M191.125 49.2262H191.22L193.002 52.8469H192.521L192.204 52.2187H190.151L189.833 52.8469H189.358L191.128 49.2262H191.125ZM191.149 50.0837L190.386 51.7601L190.356 51.8137H191.999L191.969 51.7601L191.2 50.0837H191.149Z" fill="#4A4E69"/>
<path d="M195.382 52.8469H194.128V49.2262H195.382C196.525 49.2262 197.306 49.9259 197.306 51.0365C197.306 52.1472 196.525 52.8469 195.382 52.8469ZM194.55 49.6192V52.4539H195.355C196.216 52.4539 196.879 51.9298 196.879 51.0365C196.879 50.1433 196.216 49.6192 195.355 49.6192H194.55Z" fill="#4A4E69"/>
<path d="M198.441 51.0425C198.441 49.9735 199.169 49.1487 200.306 49.1487C201.444 49.1487 202.177 49.9765 202.177 51.0425C202.177 52.1085 201.45 52.9303 200.306 52.9303C199.163 52.9303 198.441 52.0966 198.441 51.0425ZM201.75 51.0425C201.75 50.2207 201.197 49.5448 200.306 49.5448C199.415 49.5448 198.869 50.2207 198.869 51.0425C198.869 51.8643 199.421 52.5253 200.306 52.5253C201.191 52.5253 201.75 51.8554 201.75 51.0425Z" fill="#4A4E69"/>
<path d="M203.529 52.1829C203.529 52.1829 203.903 52.5343 204.619 52.5343C205.287 52.5343 205.575 52.2812 205.575 51.912C205.575 51.5755 205.352 51.4058 204.565 51.1824C203.686 50.9293 203.306 50.6703 203.306 50.1194C203.306 49.5031 203.817 49.1487 204.643 49.1487C205.522 49.1487 205.92 49.4941 205.92 49.4941L205.691 49.8455C205.691 49.8455 205.323 49.5507 204.643 49.5507C204.126 49.5507 203.734 49.7502 203.734 50.1224C203.734 50.4172 203.968 50.5691 204.75 50.7864C205.712 51.0514 206 51.373 206 51.909C206 52.4956 205.584 52.9363 204.622 52.9363C203.66 52.9363 203.297 52.5075 203.297 52.5075L203.526 52.1889L203.529 52.1829Z" fill="#4A4E69"/>
<path d="M204.815 25.1641L204.794 25.1373C204.203 24.3839 203.633 23.7467 202.154 22.9785C201.04 22.3472 197.297 21.451 196.537 21.32C193.291 20.6232 192.64 19.8639 192.64 18.8605C192.64 18.1607 193.178 17.4401 194.006 17.0233C194.606 16.7225 195.364 16.5707 196.258 16.5707C197.152 16.5707 199.026 16.8208 201.185 18.5061L201.631 18.8545L204.969 14.9717L204.491 14.5846C202.569 13.0333 200.285 12.009 197.891 11.6278L197.853 11.6219C197.294 11.5713 196.647 11.5177 196.053 11.5177C194.517 11.5177 193.106 11.8214 191.743 12.4467C190.32 13.1047 189.316 13.8849 188.568 14.924C187.763 16.133 187.338 17.4967 187.338 18.8605C187.338 21.4599 188.58 23.5442 190.926 24.8901C192.082 25.5511 194.523 26.1139 196.261 26.4772C196.415 26.5099 196.519 26.5308 196.534 26.5338L196.617 26.5546C200.235 27.1978 200.701 28.2578 200.701 29.1094C200.701 30.3004 199.884 30.9287 199.207 31.2414C198.426 31.5838 197.588 31.7595 196.721 31.7595C195.358 31.7595 193.196 31.3009 190.632 29.1183L190.196 28.7461L186.62 32.6647L187.089 33.0637C189.162 34.8294 191.69 36.0502 194.404 36.5951C195.391 36.7797 196.169 36.8631 196.929 36.8631C198.5 36.8631 200.086 36.5326 201.399 35.9281C202.908 35.2016 204.01 34.2904 204.758 33.1619C205.569 32.0215 206 30.619 206 29.1064C206 27.5938 205.59 26.2717 204.815 25.1581V25.1641Z" fill="#C0A49E"/>
</svg>
