<svg width="20" height="19" viewBox="0 0 20 19" fill="none" xmlns="http://www.w3.org/2000/svg">
<path d="M0 3.55098C0.0228894 4.1169 0.159706 4.69074 0.419813 5.23785C0.959276 6.37414 1.61371 7.45003 2.28998 8.51651C4.72355 12.3532 8.03055 15.3036 12.185 17.4053C13.1874 17.9128 14.2315 18.3327 15.2636 18.7783C15.6366 18.9392 16.0205 19.0665 16.4617 18.962C17.8767 18.6263 18.9426 17.8505 19.673 16.6676C20.2259 15.772 20.073 14.9832 19.2495 14.3039C18.8375 13.9638 18.4099 13.6375 17.963 13.3404C17.2893 12.8924 16.6516 12.3888 15.9097 12.0413C15.0977 11.6605 14.3064 11.6778 13.5662 12.218C13.2962 12.4151 13.073 12.6552 12.867 12.9127C12.4076 13.486 11.8604 13.6311 11.1706 13.3597C10.3195 13.0246 9.5064 12.6225 8.7755 12.0828C7.4656 11.1154 6.44754 9.93403 5.95386 8.40858C5.67606 7.55153 5.7645 7.06285 6.60829 6.53753C6.81741 6.40731 7.01197 6.25086 7.19145 6.08499C7.72675 5.59087 7.85316 5.04129 7.53635 4.4006C6.81117 2.93506 5.78219 1.67895 4.54251 0.575826C4.17472 0.248553 3.72786 0.151015 3.24198 0.214885C2.42784 0.321831 1.72867 0.672373 1.11846 1.18284C0.381317 1.79827 0.029132 2.58947 0 3.55098Z" fill="white"/>
<path d="M19.7822 8.64128C19.7708 8.09616 19.7401 7.55252 19.6261 7.01878C18.8177 3.23609 15.1897 -0.00445146 10.3845 4.59019e-06C10.1603 4.59019e-06 9.95223 0.0559528 9.83882 0.268853C9.64218 0.639696 9.82894 0.946668 10.2815 1.01351C11.2288 1.15313 12.1772 1.2878 13.0964 1.56111C14.8875 2.09435 16.3582 3.02963 17.3231 4.60261C18.0556 5.79584 18.4114 7.10394 18.618 8.4571C18.6601 8.73337 18.6575 9.01658 18.7147 9.28889C18.7777 9.58696 18.9712 9.70083 19.2797 9.67806C19.5637 9.65677 19.7156 9.50675 19.7437 9.20918C19.7614 9.02054 19.7697 8.83091 19.7822 8.64178V8.64128Z" fill="white"/>
<path d="M17.3903 8.00407C17.4147 7.80552 17.3471 7.56143 17.346 7.31387C17.346 7.27278 17.3377 7.23168 17.3304 7.19108C17.0407 5.54779 16.1298 4.28574 14.719 3.32818C13.6546 2.60581 12.431 2.33894 11.1628 2.21961C10.7305 2.17901 10.5073 2.43895 10.5572 2.85089C10.5879 3.1034 10.7638 3.23906 11.1305 3.29154C11.877 3.39849 12.6038 3.57722 13.3087 3.8337C14.2627 4.18077 15.0493 4.7259 15.5227 5.60869C15.9716 6.44593 16.2364 7.33615 16.2744 8.28084C16.2879 8.62049 16.4757 8.83042 16.7748 8.82745C17.2306 8.82249 17.3825 8.68683 17.3903 8.27687C17.3918 8.20261 17.3903 8.12834 17.3903 8.00407Z" fill="white"/>
<path d="M15.0046 7.40299C15.0014 7.34556 15.0046 7.28664 14.9941 7.2302C14.7601 5.93052 13.9631 5.06505 12.701 4.5734C12.4045 4.45804 12.0861 4.40259 11.7615 4.50111C11.4634 4.59122 11.2486 4.89374 11.285 5.18338C11.3105 5.38539 11.4858 5.48986 11.8474 5.51907C12.7572 5.59285 13.5453 6.21075 13.782 7.04899C13.8492 7.28615 13.8726 7.5342 13.9381 7.77186C14.0078 8.02486 14.2143 8.17241 14.4859 8.14765C14.7174 8.12636 14.8651 7.96644 14.9494 7.7679C14.9978 7.65402 15.0134 7.52826 15.0046 7.4025V7.40299Z" fill="white"/>
</svg>
