<svg width="22" height="22" viewBox="0 0 22 22" fill="none" xmlns="http://www.w3.org/2000/svg">
<path d="M16.2789 12.6415C16.236 12.6208 14.6322 11.831 14.3473 11.7285C14.231 11.6867 14.1064 11.646 13.9739 11.646C13.7572 11.646 13.5754 11.7538 13.4338 11.9658C13.2734 12.2039 12.7886 12.771 12.6387 12.9401C12.6192 12.9624 12.5925 12.9891 12.5766 12.9891C12.5623 12.9891 12.314 12.8868 12.2389 12.8543C10.5185 12.1069 9.21252 10.3098 9.03349 10.0067C9.00792 9.96325 9.00682 9.94345 9.00654 9.94345C9.01287 9.92035 9.07062 9.86232 9.10059 9.83235C9.18804 9.746 9.28264 9.63188 9.37422 9.52188C9.41767 9.46962 9.46112 9.41737 9.50374 9.36815C9.63657 9.2136 9.69569 9.0937 9.76444 8.95455L9.80047 8.88223C9.96794 8.54947 9.82494 8.26898 9.77874 8.17823C9.74079 8.10233 9.06347 6.468 8.99169 6.29612C8.81844 5.8817 8.58964 5.68892 8.27174 5.68892C8.24232 5.68892 8.27174 5.68892 8.14799 5.69415C7.99729 5.70047 7.17697 5.80855 6.81424 6.03708C6.42952 6.27962 5.77887 7.05265 5.77887 8.41197C5.77887 9.63545 6.55519 10.7907 6.88877 11.2302C6.89702 11.2412 6.91214 11.2637 6.93442 11.2959C8.21097 13.1604 9.80266 14.542 11.4158 15.1866C12.969 15.807 13.7046 15.8788 14.1226 15.8788C14.2984 15.8788 14.4389 15.865 14.5632 15.8527L14.6418 15.8452C15.1784 15.7977 16.3576 15.1866 16.6257 14.4413C16.8369 13.8542 16.8927 13.2129 16.7522 12.98C16.6559 12.8216 16.4898 12.7421 16.28 12.6412L16.2789 12.6415Z" fill="white"/>
<path d="M11.1953 0C5.23712 0 0.389702 4.81113 0.389702 10.7245C0.389702 12.6371 0.901477 14.5093 1.87113 16.148L0.0151527 21.6227C-0.0194973 21.7247 0.0063527 21.8377 0.0817026 21.9145C0.136153 21.97 0.210127 22 0.285752 22C0.314627 22 0.343777 21.9956 0.372377 21.9865L6.08082 20.1726C7.64309 21.0072 9.40859 21.4478 11.1953 21.4478C17.1529 21.4478 22 16.6375 22 10.7245C22 4.8114 17.1531 0 11.1953 0ZM11.1953 19.214C9.51392 19.214 7.88537 18.7286 6.48562 17.8098C6.43859 17.779 6.38387 17.7631 6.32887 17.7631C6.29972 17.7631 6.27057 17.7675 6.24224 17.7766L3.38252 18.6854L4.3057 15.9618C4.33567 15.8735 4.32055 15.7765 4.26555 15.7014C3.19965 14.2447 2.63617 12.5238 2.63617 10.7245C2.63617 6.04285 6.47572 2.23382 11.1953 2.23382C15.9148 2.23382 19.7533 6.04258 19.7533 10.7245C19.7533 15.4055 15.9143 19.2137 11.1953 19.2137V19.214Z" fill="white"/>
</svg>
