<svg width="878" height="327" viewBox="0 0 878 327" fill="none" xmlns="http://www.w3.org/2000/svg">
<mask id="mask0_276_59" style="mask-type:alpha" maskUnits="userSpaceOnUse" x="0" y="0" width="878" height="327">
<rect width="878" height="327" rx="22" fill="#4A4E69"/>
</mask>
<g mask="url(#mask0_276_59)">
<path d="M52.9492 -9.42611L99.2752 -50.5222C94.9853 -52.7162 90.138 -53.9684 85.0015 -53.9995C67.3725 -54.1029 52.9492 -39.4332 52.9492 -21.7622V-9.42611Z" fill="#EAE6DB"/>
<path d="M46.326 -9.42611L0 -50.5222C4.28983 -52.7162 9.13718 -53.9684 14.2736 -53.9995C31.9027 -54.1029 46.326 -39.4332 46.326 -21.7622V-9.42611Z" fill="#EAE6DB"/>
<path d="M46.326 -2.20765L0 38.8884C4.28983 41.0824 9.13718 42.3346 14.2736 42.3657C31.9027 42.4692 46.326 27.7994 46.326 10.1284V-2.20765Z" fill="#C0A49E"/>
<path d="M52.9492 -2.20765L99.2752 38.8884C94.9853 41.0824 90.138 42.3346 85.0015 42.3657C67.3725 42.4692 52.9492 27.7994 52.9492 10.1284V-2.20765Z" fill="#C0A49E"/>
<path d="M164.433 -9.42611L210.759 -50.5222C206.474 -52.7162 201.622 -53.9684 196.485 -53.9995C178.856 -54.1029 164.433 -39.4332 164.433 -21.7622V-9.42611Z" fill="#C0A49E"/>
<path d="M157.815 -9.42611L111.489 -50.5222C115.774 -52.7162 120.626 -53.9684 125.763 -53.9995C143.392 -54.1029 157.815 -39.4332 157.815 -21.7622V-9.42611Z" fill="#C0A49E"/>
<path d="M157.815 -2.20765L111.489 38.8884C115.779 41.0824 120.626 42.3346 125.763 42.3657C143.392 42.4692 157.815 27.7994 157.815 10.1284V-2.20765Z" fill="#EAE6DB"/>
<path d="M164.433 -2.20765L210.759 38.8884C206.469 41.0824 201.622 42.3346 196.485 42.3657C178.856 42.4692 164.433 27.7994 164.433 10.1284V-2.20765Z" fill="#EAE6DB"/>
<path d="M275.922 -9.42611L322.248 -50.5222C317.963 -52.7162 313.111 -53.9684 307.974 -53.9995C290.345 -54.1029 275.922 -39.4332 275.922 -21.7622V-9.42611Z" fill="#EAE6DB"/>
<path d="M269.299 -9.42611L222.978 -50.5222C227.263 -52.7162 232.11 -53.9684 237.247 -53.9995C254.876 -54.1029 269.299 -39.4332 269.299 -21.7622V-9.42611Z" fill="#EAE6DB"/>
<path d="M269.299 -2.20765L222.973 38.8884C227.263 41.0824 232.11 42.3346 237.247 42.3657C254.876 42.4692 269.299 27.7994 269.299 10.1284V-2.20765Z" fill="#C0A49E"/>
<path d="M275.922 -2.20765L322.248 38.8884C317.958 41.0824 313.111 42.3346 307.974 42.3657C290.345 42.4692 275.922 27.7994 275.922 10.1284V-2.20765Z" fill="#C0A49E"/>
<path d="M387.411 -9.42611L433.737 -50.5222C429.447 -52.7162 424.6 -53.9684 419.463 -53.9995C401.834 -54.1029 387.411 -39.4332 387.411 -21.7622V-9.42611Z" fill="#C0A49E"/>
<path d="M380.788 -9.42611L334.462 -50.5222C338.752 -52.7162 343.599 -53.9684 348.736 -53.9995C366.365 -54.1029 380.788 -39.4332 380.788 -21.7622V-9.42611Z" fill="#C0A49E"/>
<path d="M380.788 -2.20765L334.462 38.8884C338.752 41.0824 343.599 42.3346 348.736 42.3657C366.365 42.4692 380.788 27.7994 380.788 10.1284V-2.20765Z" fill="#EAE6DB"/>
<path d="M387.411 -2.20765L433.737 38.8884C429.447 41.0824 424.6 42.3346 419.463 42.3657C401.834 42.4692 387.411 27.7994 387.411 10.1284V-2.20765Z" fill="#EAE6DB"/>
<path d="M498.9 -9.42611L545.226 -50.5222C540.936 -52.7162 536.089 -53.9684 530.953 -53.9995C513.323 -54.1029 498.9 -39.4332 498.9 -21.7622V-9.42611Z" fill="#EAE6DB"/>
<path d="M492.277 -9.42611L445.951 -50.5222C450.241 -52.7162 455.088 -53.9684 460.225 -53.9995C477.854 -54.1029 492.277 -39.4332 492.277 -21.7622V-9.42611Z" fill="#EAE6DB"/>
<path d="M492.277 -2.20765L445.951 38.8884C450.241 41.0824 455.088 42.3346 460.225 42.3657C477.854 42.4692 492.277 27.7994 492.277 10.1284V-2.20765Z" fill="#C0A49E"/>
<path d="M498.9 -2.20765L545.226 38.8884C540.936 41.0824 536.089 42.3346 530.953 42.3657C513.323 42.4692 498.9 27.7994 498.9 10.1284V-2.20765Z" fill="#C0A49E"/>
<path d="M610.384 -9.42611L656.71 -50.5222C652.425 -52.7162 647.578 -53.9684 642.436 -53.9995C624.807 -54.1029 610.384 -39.4332 610.384 -21.7622V-9.42611Z" fill="#C0A49E"/>
<path d="M603.766 -9.42611L557.44 -50.5222C561.725 -52.7162 566.577 -53.9684 571.714 -53.9995C589.343 -54.1029 603.766 -39.4332 603.766 -21.7622V-9.42611Z" fill="#C0A49E"/>
<path d="M603.766 -2.20765L557.44 38.8884C561.73 41.0824 566.577 42.3346 571.714 42.3657C589.343 42.4692 603.766 27.7994 603.766 10.1284V-2.20765Z" fill="#EAE6DB"/>
<path d="M610.384 -2.20765L656.71 38.8884C652.42 41.0824 647.573 42.3346 642.436 42.3657C624.807 42.4692 610.384 27.7994 610.384 10.1284V-2.20765Z" fill="#EAE6DB"/>
<path d="M721.873 -9.42611L768.199 -50.5222C763.914 -52.7162 759.062 -53.9684 753.925 -53.9995C736.296 -54.1029 721.873 -39.4332 721.873 -21.7622V-9.42611Z" fill="#EAE6DB"/>
<path d="M715.25 -9.42611L668.924 -50.5222C673.214 -52.7162 678.061 -53.9684 683.197 -53.9995C700.827 -54.1029 715.25 -39.4332 715.25 -21.7622V-9.42611Z" fill="#EAE6DB"/>
<path d="M715.25 -2.20765L668.924 38.8884C673.214 41.0824 678.061 42.3346 683.197 42.3657C700.827 42.4692 715.25 27.7994 715.25 10.1284V-2.20765Z" fill="#C0A49E"/>
<path d="M721.873 -2.20765L768.199 38.8884C763.909 41.0824 759.062 42.3346 753.925 42.3657C736.296 42.4692 721.873 27.7994 721.873 10.1284V-2.20765Z" fill="#C0A49E"/>
<path d="M52.9492 102.783L99.2752 61.6874C94.9853 59.4934 90.138 58.2411 85.0015 58.2101C67.3725 58.1066 52.9492 72.7764 52.9492 90.4474V102.783Z" fill="#EAE6DB"/>
<path d="M46.326 102.783L0 61.6874C4.28983 59.4934 9.13718 58.2411 14.2736 58.2101C31.9027 58.1066 46.326 72.7764 46.326 90.4474V102.783Z" fill="#EAE6DB"/>
<path d="M46.326 110.002L0 151.098C4.28983 153.292 9.13718 154.544 14.2736 154.575C31.9027 154.679 46.326 140.009 46.326 122.338V110.002Z" fill="#C0A49E"/>
<path d="M52.9492 110.002L99.2752 151.098C94.9853 153.292 90.138 154.544 85.0015 154.575C67.3725 154.679 52.9492 140.009 52.9492 122.338V110.002Z" fill="#C0A49E"/>
<path d="M164.433 102.783L210.759 61.6874C206.469 59.4934 201.622 58.2411 196.485 58.2101C178.856 58.1066 164.433 72.7764 164.433 90.4474V102.783Z" fill="#C0A49E"/>
<path d="M157.815 102.783L111.489 61.6874C115.779 59.4934 120.626 58.2411 125.763 58.2101C143.392 58.1066 157.815 72.7764 157.815 90.4474V102.783Z" fill="#C0A49E"/>
<path d="M157.815 110.002L111.489 151.098C115.779 153.292 120.626 154.544 125.763 154.575C143.392 154.679 157.815 140.009 157.815 122.338V110.002Z" fill="#EAE6DB"/>
<path d="M164.433 110.002L210.759 151.098C206.469 153.292 201.622 154.544 196.485 154.575C178.856 154.679 164.433 140.009 164.433 122.338V110.002Z" fill="#EAE6DB"/>
<path d="M275.922 102.783L322.248 61.6874C317.958 59.4934 313.111 58.2411 307.974 58.2101C290.345 58.1066 275.922 72.7764 275.922 90.4474V102.783Z" fill="#EAE6DB"/>
<path d="M269.299 102.783L222.973 61.6874C227.263 59.4934 232.11 58.2411 237.247 58.2101C254.876 58.1066 269.299 72.7764 269.299 90.4474V102.783Z" fill="#EAE6DB"/>
<path d="M269.299 110.002L222.973 151.098C227.263 153.292 232.11 154.544 237.247 154.575C254.876 154.679 269.299 140.009 269.299 122.338V110.002Z" fill="#C0A49E"/>
<path d="M275.922 110.002L322.248 151.098C317.958 153.292 313.111 154.544 307.974 154.575C290.345 154.679 275.922 140.009 275.922 122.338V110.002Z" fill="#C0A49E"/>
<path d="M387.411 102.783L433.737 61.6874C429.447 59.4934 424.6 58.2411 419.463 58.2101C401.834 58.1066 387.411 72.7764 387.411 90.4474V102.783Z" fill="#C0A49E"/>
<path d="M380.788 102.783L334.462 61.6874C338.752 59.4934 343.599 58.2411 348.736 58.2101C366.365 58.1066 380.788 72.7764 380.788 90.4474V102.783Z" fill="#C0A49E"/>
<path d="M380.788 110.002L334.462 151.098C338.752 153.292 343.599 154.544 348.736 154.575C366.365 154.679 380.788 140.009 380.788 122.338V110.002Z" fill="#EAE6DB"/>
<path d="M387.411 110.002L433.737 151.098C429.447 153.292 424.6 154.544 419.463 154.575C401.834 154.679 387.411 140.009 387.411 122.338V110.002Z" fill="#EAE6DB"/>
<path d="M498.9 102.783L545.226 61.6874C540.936 59.4934 536.089 58.2411 530.953 58.2101C513.323 58.1066 498.9 72.7764 498.9 90.4474V102.783Z" fill="#EAE6DB"/>
<path d="M492.277 102.783L445.951 61.6874C450.241 59.4934 455.088 58.2411 460.225 58.2101C477.854 58.1066 492.277 72.7764 492.277 90.4474V102.783Z" fill="#EAE6DB"/>
<path d="M492.277 110.002L445.951 151.098C450.241 153.292 455.088 154.544 460.225 154.575C477.854 154.679 492.277 140.009 492.277 122.338V110.002Z" fill="#C0A49E"/>
<path d="M498.9 110.002L545.226 151.098C540.936 153.292 536.089 154.544 530.953 154.575C513.323 154.679 498.9 140.009 498.9 122.338V110.002Z" fill="#C0A49E"/>
<path d="M610.384 102.783L656.71 61.6874C652.42 59.4934 647.573 58.2411 642.436 58.2101C624.807 58.1066 610.384 72.7764 610.384 90.4474V102.783Z" fill="#C0A49E"/>
<path d="M603.766 102.783L557.44 61.6874C561.73 59.4934 566.577 58.2411 571.714 58.2101C589.343 58.1066 603.766 72.7764 603.766 90.4474V102.783Z" fill="#C0A49E"/>
<path d="M603.766 110.002L557.44 151.098C561.73 153.292 566.577 154.544 571.714 154.575C589.343 154.679 603.766 140.009 603.766 122.338V110.002Z" fill="#EAE6DB"/>
<path d="M610.384 110.002L656.71 151.098C652.42 153.292 647.573 154.544 642.436 154.575C624.807 154.679 610.384 140.009 610.384 122.338V110.002Z" fill="#EAE6DB"/>
<path d="M721.873 102.783L768.199 61.6874C763.909 59.4934 759.062 58.2411 753.925 58.2101C736.296 58.1066 721.873 72.7764 721.873 90.4474V102.783Z" fill="#EAE6DB"/>
<path d="M715.25 102.783L668.924 61.6874C673.214 59.4934 678.061 58.2411 683.197 58.2101C700.827 58.1066 715.25 72.7764 715.25 90.4474V102.783Z" fill="#EAE6DB"/>
<path d="M715.25 110.002L668.924 151.098C673.214 153.292 678.061 154.544 683.197 154.575C700.827 154.679 715.25 140.009 715.25 122.338V110.002Z" fill="#C0A49E"/>
<path d="M721.873 110.002L768.199 151.098C763.909 153.292 759.062 154.544 753.925 154.575C736.296 154.679 721.873 140.009 721.873 122.338V110.002Z" fill="#C0A49E"/>
<path d="M52.9492 214.993L99.2752 173.897C94.9853 171.703 90.138 170.451 85.0015 170.42C67.3725 170.316 52.9492 184.986 52.9492 202.657V214.993Z" fill="#EAE6DB"/>
<path d="M46.326 214.993L0 173.897C4.28983 171.703 9.13718 170.451 14.2736 170.42C31.9027 170.316 46.326 184.986 46.326 202.657V214.993Z" fill="#EAE6DB"/>
<path d="M46.326 222.211L0 263.308C4.28983 265.502 9.13718 266.754 14.2736 266.785C31.9027 266.888 46.326 252.218 46.326 234.547V222.211Z" fill="#C0A49E"/>
<path d="M52.9492 222.211L99.2752 263.308C94.9853 265.502 90.138 266.754 85.0015 266.785C67.3725 266.888 52.9492 252.218 52.9492 234.547V222.211Z" fill="#C0A49E"/>
<path d="M164.433 214.993L210.759 173.897C206.469 171.703 201.622 170.451 196.485 170.42C178.856 170.316 164.433 184.986 164.433 202.657V214.993Z" fill="#C0A49E"/>
<path d="M157.815 214.993L111.489 173.897C115.779 171.703 120.626 170.451 125.763 170.42C143.392 170.316 157.815 184.986 157.815 202.657V214.993Z" fill="#C0A49E"/>
<path d="M157.815 222.211L111.489 263.308C115.779 265.502 120.626 266.754 125.763 266.785C143.392 266.888 157.815 252.218 157.815 234.547V222.211Z" fill="#EAE6DB"/>
<path d="M164.433 222.211L210.759 263.308C206.469 265.502 201.622 266.754 196.485 266.785C178.856 266.888 164.433 252.218 164.433 234.547V222.211Z" fill="#EAE6DB"/>
<path d="M275.922 214.993L322.248 173.897C317.958 171.703 313.111 170.451 307.974 170.42C290.345 170.316 275.922 184.986 275.922 202.657V214.993Z" fill="#EAE6DB"/>
<path d="M269.299 214.993L222.973 173.897C227.263 171.703 232.11 170.451 237.247 170.42C254.876 170.316 269.299 184.986 269.299 202.657V214.993Z" fill="#EAE6DB"/>
<path d="M269.299 222.211L222.973 263.308C227.263 265.502 232.11 266.754 237.247 266.785C254.876 266.888 269.299 252.218 269.299 234.547V222.211Z" fill="#C0A49E"/>
<path d="M275.922 222.211L322.248 263.308C317.958 265.502 313.111 266.754 307.974 266.785C290.345 266.888 275.922 252.218 275.922 234.547V222.211Z" fill="#C0A49E"/>
<path d="M387.411 214.993L433.737 173.897C429.447 171.703 424.6 170.451 419.463 170.42C401.834 170.316 387.411 184.986 387.411 202.657V214.993Z" fill="#C0A49E"/>
<path d="M380.788 214.993L334.462 173.897C338.752 171.703 343.599 170.451 348.736 170.42C366.365 170.316 380.788 184.986 380.788 202.657V214.993Z" fill="#C0A49E"/>
<path d="M380.788 222.211L334.462 263.308C338.752 265.502 343.599 266.754 348.736 266.785C366.365 266.888 380.788 252.218 380.788 234.547V222.211Z" fill="#EAE6DB"/>
<path d="M387.411 222.211L433.737 263.308C429.447 265.502 424.6 266.754 419.463 266.785C401.834 266.888 387.411 252.218 387.411 234.547V222.211Z" fill="#EAE6DB"/>
<path d="M498.9 214.993L545.226 173.897C540.936 171.703 536.089 170.451 530.953 170.42C513.323 170.316 498.9 184.986 498.9 202.657V214.993Z" fill="#EAE6DB"/>
<path d="M492.277 214.993L445.951 173.897C450.241 171.703 455.088 170.451 460.225 170.42C477.854 170.316 492.277 184.986 492.277 202.657V214.993Z" fill="#EAE6DB"/>
<path d="M492.277 222.211L445.951 263.308C450.241 265.502 455.088 266.754 460.225 266.785C477.854 266.888 492.277 252.218 492.277 234.547V222.211Z" fill="#C0A49E"/>
<path d="M498.9 222.211L545.226 263.308C540.936 265.502 536.089 266.754 530.953 266.785C513.323 266.888 498.9 252.218 498.9 234.547V222.211Z" fill="#C0A49E"/>
<path d="M610.384 214.993L656.71 173.897C652.42 171.703 647.573 170.451 642.436 170.42C624.807 170.316 610.384 184.986 610.384 202.657V214.993Z" fill="#C0A49E"/>
<path d="M603.766 214.993L557.44 173.897C561.73 171.703 566.577 170.451 571.714 170.42C589.343 170.316 603.766 184.986 603.766 202.657V214.993Z" fill="#C0A49E"/>
<path d="M603.766 222.211L557.44 263.308C561.73 265.502 566.577 266.754 571.714 266.785C589.343 266.888 603.766 252.218 603.766 234.547V222.211Z" fill="#EAE6DB"/>
<path d="M610.384 222.211L656.71 263.308C652.42 265.502 647.573 266.754 642.436 266.785C624.807 266.888 610.384 252.218 610.384 234.547V222.211Z" fill="#EAE6DB"/>
<path d="M721.873 214.993L768.199 173.897C763.909 171.703 759.062 170.451 753.925 170.42C736.296 170.316 721.873 184.986 721.873 202.657V214.993Z" fill="#EAE6DB"/>
<path d="M715.25 214.993L668.924 173.897C673.214 171.703 678.061 170.451 683.197 170.42C700.827 170.316 715.25 184.986 715.25 202.657V214.993Z" fill="#EAE6DB"/>
<path d="M715.25 222.211L668.924 263.308C673.214 265.502 678.061 266.754 683.197 266.785C700.827 266.888 715.25 252.218 715.25 234.547V222.211Z" fill="#C0A49E"/>
<path d="M721.873 222.211L768.199 263.308C763.909 265.502 759.062 266.754 753.925 266.785C736.296 266.888 721.873 252.218 721.873 234.547V222.211Z" fill="#C0A49E"/>
<path d="M52.9492 327.203L99.2752 286.106C94.9853 283.912 90.138 282.66 85.0015 282.629C67.3725 282.526 52.9492 297.195 52.9492 314.866V327.203Z" fill="#EAE6DB"/>
<path d="M46.326 327.203L0 286.106C4.28983 283.912 9.13718 282.66 14.2736 282.629C31.9027 282.526 46.326 297.195 46.326 314.866V327.203Z" fill="#EAE6DB"/>
<path d="M46.326 334.426L0 375.517C4.28983 377.711 9.13718 378.963 14.2736 378.994C31.9027 379.098 46.326 364.428 46.326 346.757V334.426Z" fill="#C0A49E"/>
<path d="M52.9492 334.426L99.2752 375.522C94.9853 377.716 90.138 378.968 85.0015 378.999C67.3725 379.103 52.9492 364.433 52.9492 346.762V334.426Z" fill="#C0A49E"/>
<path d="M164.433 327.203L210.759 286.106C206.469 283.912 201.622 282.66 196.485 282.629C178.856 282.526 164.433 297.195 164.433 314.866V327.203Z" fill="#C0A49E"/>
<path d="M157.815 327.203L111.489 286.106C115.779 283.912 120.626 282.66 125.763 282.629C143.392 282.526 157.815 297.195 157.815 314.866V327.203Z" fill="#C0A49E"/>
<path d="M157.815 334.426L111.489 375.522C115.779 377.716 120.626 378.968 125.763 378.999C143.392 379.103 157.815 364.433 157.815 346.762V334.426Z" fill="#EAE6DB"/>
<path d="M164.433 334.426L210.759 375.522C206.469 377.716 201.622 378.968 196.485 378.999C178.856 379.103 164.433 364.433 164.433 346.762V334.426Z" fill="#EAE6DB"/>
<path d="M275.922 327.203L322.248 286.106C317.958 283.912 313.111 282.66 307.974 282.629C290.345 282.526 275.922 297.195 275.922 314.866V327.203Z" fill="#EAE6DB"/>
<path d="M269.299 327.203L222.973 286.106C227.263 283.912 232.11 282.66 237.247 282.629C254.876 282.526 269.299 297.195 269.299 314.866V327.203Z" fill="#EAE6DB"/>
<path d="M269.299 334.426L222.973 375.522C227.263 377.716 232.11 378.968 237.247 378.999C254.876 379.103 269.299 364.433 269.299 346.762V334.426Z" fill="#C0A49E"/>
<path d="M275.922 334.426L322.248 375.522C317.958 377.716 313.111 378.968 307.974 378.999C290.345 379.103 275.922 364.433 275.922 346.762V334.426Z" fill="#C0A49E"/>
<path d="M387.411 327.203L433.737 286.106C429.447 283.912 424.6 282.66 419.463 282.629C401.834 282.526 387.411 297.195 387.411 314.866V327.203Z" fill="#C0A49E"/>
<path d="M380.788 327.203L334.462 286.106C338.752 283.912 343.599 282.66 348.736 282.629C366.365 282.526 380.788 297.195 380.788 314.866V327.203Z" fill="#C0A49E"/>
<path d="M380.788 334.426L334.462 375.522C338.752 377.716 343.599 378.968 348.736 378.999C366.365 379.103 380.788 364.433 380.788 346.762V334.426Z" fill="#EAE6DB"/>
<path d="M387.411 334.426L433.737 375.522C429.447 377.716 424.6 378.968 419.463 378.999C401.834 379.103 387.411 364.433 387.411 346.762V334.426Z" fill="#EAE6DB"/>
<path d="M498.9 327.203L545.226 286.106C540.936 283.912 536.089 282.66 530.953 282.629C513.323 282.526 498.9 297.195 498.9 314.866V327.203Z" fill="#EAE6DB"/>
<path d="M492.277 327.203L445.951 286.106C450.241 283.912 455.088 282.66 460.225 282.629C477.854 282.526 492.277 297.195 492.277 314.866V327.203Z" fill="#EAE6DB"/>
<path d="M492.277 334.426L445.951 375.522C450.241 377.716 455.088 378.968 460.225 378.999C477.854 379.103 492.277 364.433 492.277 346.762V334.426Z" fill="#C0A49E"/>
<path d="M498.9 334.426L545.226 375.522C540.936 377.716 536.089 378.968 530.953 378.999C513.323 379.103 498.9 364.433 498.9 346.762V334.426Z" fill="#C0A49E"/>
<path d="M610.384 327.203L656.71 286.106C652.42 283.912 647.573 282.66 642.436 282.629C624.807 282.526 610.384 297.195 610.384 314.866V327.203Z" fill="#C0A49E"/>
<path d="M603.766 327.203L557.44 286.106C561.73 283.912 566.577 282.66 571.714 282.629C589.343 282.526 603.766 297.195 603.766 314.866V327.203Z" fill="#C0A49E"/>
<path d="M603.766 334.426L557.44 375.522C561.73 377.716 566.577 378.968 571.714 378.999C589.343 379.103 603.766 364.433 603.766 346.762V334.426Z" fill="#EAE6DB"/>
<path d="M610.384 334.426L656.71 375.522C652.42 377.716 647.573 378.968 642.436 378.999C624.807 379.103 610.384 364.433 610.384 346.762V334.426Z" fill="#EAE6DB"/>
<path d="M721.873 327.203L768.199 286.106C763.909 283.912 759.062 282.66 753.925 282.629C736.296 282.526 721.873 297.195 721.873 314.866V327.203Z" fill="#EAE6DB"/>
<path d="M715.25 327.203L668.924 286.106C673.214 283.912 678.061 282.66 683.197 282.629C700.827 282.526 715.25 297.195 715.25 314.866V327.203Z" fill="#EAE6DB"/>
<path d="M715.25 334.426L668.924 375.522C673.214 377.716 678.061 378.968 683.197 378.999C700.827 379.103 715.25 364.433 715.25 346.762V334.426Z" fill="#C0A49E"/>
<path d="M721.873 334.426L768.199 375.522C763.909 377.716 759.062 378.968 753.925 378.999C736.296 379.103 721.873 364.433 721.873 346.762V334.426Z" fill="#C0A49E"/>
<path d="M831.674 -9.42611L878 -50.5222C873.71 -52.7162 868.863 -53.9684 863.726 -53.9995C846.097 -54.1029 831.674 -39.4332 831.674 -21.7622V-9.42611Z" fill="#C0A49E"/>
<path d="M825.051 -9.42611L778.725 -50.5222C783.015 -52.7162 787.862 -53.9684 792.998 -53.9995C810.628 -54.1029 825.051 -39.4332 825.051 -21.7622V-9.42611Z" fill="#C0A49E"/>
<path d="M825.051 -2.20765L778.725 38.8884C783.015 41.0824 787.862 42.3346 792.998 42.3657C810.628 42.4692 825.051 27.7994 825.051 10.1284V-2.20765Z" fill="#EAE6DB"/>
<path d="M831.674 -2.20765L878 38.8884C873.71 41.0824 868.863 42.3346 863.726 42.3657C846.097 42.4692 831.674 27.7994 831.674 10.1284V-2.20765Z" fill="#EAE6DB"/>
<path d="M831.674 102.783L878 61.6874C873.71 59.4934 868.863 58.2411 863.726 58.2101C846.097 58.1066 831.674 72.7764 831.674 90.4474V102.783Z" fill="#C0A49E"/>
<path d="M825.051 102.783L778.725 61.6874C783.015 59.4934 787.862 58.2411 792.998 58.2101C810.628 58.1066 825.051 72.7764 825.051 90.4474V102.783Z" fill="#C0A49E"/>
<path d="M825.051 110.002L778.725 151.098C783.015 153.292 787.862 154.544 792.998 154.575C810.628 154.679 825.051 140.009 825.051 122.338V110.002Z" fill="#EAE6DB"/>
<path d="M831.674 110.002L878 151.098C873.71 153.292 868.863 154.544 863.726 154.575C846.097 154.679 831.674 140.009 831.674 122.338V110.002Z" fill="#EAE6DB"/>
<path d="M831.674 214.993L878 173.897C873.71 171.703 868.863 170.451 863.726 170.42C846.097 170.316 831.674 184.986 831.674 202.657V214.993Z" fill="#C0A49E"/>
<path d="M825.051 214.993L778.725 173.897C783.015 171.703 787.862 170.451 792.998 170.42C810.628 170.316 825.051 184.986 825.051 202.657V214.993Z" fill="#C0A49E"/>
<path d="M825.051 222.211L778.725 263.308C783.015 265.502 787.862 266.754 792.998 266.785C810.628 266.888 825.051 252.218 825.051 234.547V222.211Z" fill="#EAE6DB"/>
<path d="M831.674 222.211L878 263.308C873.71 265.502 868.863 266.754 863.726 266.785C846.097 266.888 831.674 252.218 831.674 234.547V222.211Z" fill="#EAE6DB"/>
<path d="M831.674 327.203L878 286.106C873.71 283.912 868.863 282.66 863.726 282.629C846.097 282.526 831.674 297.195 831.674 314.866V327.203Z" fill="#C0A49E"/>
<path d="M825.051 327.203L778.725 286.106C783.015 283.912 787.862 282.66 792.998 282.629C810.628 282.526 825.051 297.195 825.051 314.866V327.203Z" fill="#C0A49E"/>
<path d="M825.051 334.426L778.725 375.522C783.015 377.716 787.862 378.968 792.998 378.999C810.628 379.103 825.051 364.433 825.051 346.762V334.426Z" fill="#EAE6DB"/>
<path d="M831.674 334.426L878 375.522C873.71 377.716 868.863 378.968 863.726 378.999C846.097 379.103 831.674 364.433 831.674 346.762V334.426Z" fill="#EAE6DB"/>
</g>
</svg>
